<svg xmlns="http://www.w3.org/2000/svg" viewBox="0 0 193.92 525.27"><g id="Layer_2" data-name="Layer 2"><g id="レイヤー_1" data-name="レイヤー 1"><path d="M135.57,234.58a5.56,5.56,0,0,1-1.09-1,26.56,26.56,0,0,1-1.72-3.08,31,31,0,0,0-2.93-5.25,53.83,53.83,0,0,1-5.56-10.23,80.05,80.05,0,0,1-4.17-12.68c-.27-1.19-.69-2.35-1.06-3.51a11.37,11.37,0,0,1-.47-4.41,4.19,4.19,0,0,1,.52-1.59c.29-.57.81-.72,1.58-.47-2,1.84-1.34,4-.83,6,.4,1.61,1,3.16,1.53,4.74a7.5,7.5,0,0,1,.4,1.38,16.54,16.54,0,0,0,1.4,4.21c1.13,2.6,2.18,5.23,3.27,7.85a19.66,19.66,0,0,0,2.86,4.67c.27.34.45.74.69,1.11a28.33,28.33,0,0,0,2.08,3,22.26,22.26,0,0,1,2.1,3.58c.55,1,1,2.09,1.54,3.14A2.56,2.56,0,0,1,135.57,234.58Z"/><path d="M137.07,205.71a13.48,13.48,0,0,1,1.06-.86c.91-.6,1.83-1.16,2.74-1.75s2-1.36,3-2c.55-.34,1.2-.5,1.75-.84.7-.43,1.62-.47,2.09-1.36.18-.35.81-.45,1.19-.72.81-.56,1.57-1.19,2.39-1.73a3.27,3.27,0,0,1,2.61-.29c-.22.5-.76.9-.3,1.43,0,.05-.07.23-.12.35-.33.75-.66,1.5-1,2.38l-2.84.79c-.28.85-1.19,1.24-2,1.76-.33.22-.83.34-1,.64-.67,1.47-2.09,1.43-3.32,1.7-.8.18-1.65.11-2.47.23a15.39,15.39,0,0,0-2,.46A2.26,2.26,0,0,1,137.07,205.71Z"/><path d="M159.86,213.31c-.81.34-1.6.61-2.33,1a2,2,0,0,1-2-.08,13.47,13.47,0,0,1-4.22-3.84.72.72,0,0,1-.12-.23c-.14-.47-.62-.88-.15-1.44s.89-.18,1.32-.1a11.45,11.45,0,0,1,4.45,1.42c.84.56,1.7,1.07,2.52,1.64C159.82,212,159.8,212.05,159.86,213.31Z"/><path d="M116.08,122.42l2.83-.53c.2,1.16,0,1.48-.87,2-1.71,1-3.45.55-5.2.21-.26,0-.5-.15-.75-.22A2,2,0,0,1,111,120.4a25.61,25.61,0,0,1,5.49-4.63,54.45,54.45,0,0,1,9.2-4.43c1.83-.73,3.66-1.44,5.48-2.19,1-.4,1-.51.94-1.58-.09-2.13-.42-4.26.1-6.39a3.26,3.26,0,0,1,3.5-2.68,2.29,2.29,0,0,1,2.05,1.39c.88,2,2.65,2.83,4.53,3.49.87.3,1.09.07,1.54-.87s.59-1.77,1.58-2.29c1.14-.59,1.92-.6,2.68.44s1.53,2.37.5,4c.59.06,1,.12,1.41.13,1.09,0,2.18,0,3.28,0a17.17,17.17,0,0,1,5.77,1,4.08,4.08,0,0,1,2.76,2.6,1.51,1.51,0,0,1-.44,1.88,8.31,8.31,0,0,1-1.52,1c-2.32,1.11-4.74,2-7.32,1.11a12.38,12.38,0,0,1-4.65-2.63,4.85,4.85,0,0,1-.55-.56c-1.44-1.8-3.34-1.84-5.33-1.33-1.77.45-3.51,1-5.27,1.56a1.46,1.46,0,0,0-1.15,1.33,31.58,31.58,0,0,0-.14,7.46c.1,2.57.4,5.14.5,7.72a22.4,22.4,0,0,1-.25,3.65c-.27,2.21-.54,4.42-.94,6.61-.47,2.62-1,5.23-1.61,7.82-.73,3.19-1.73,6.33-2.22,9.54a39,39,0,0,0-.14,12.15,11.17,11.17,0,0,0,.53,1.63c.69-.43,1.24-.76,1.77-1.1a11.77,11.77,0,0,1,1.76-1.11,3.82,3.82,0,0,0,1.76-1.49,3.53,3.53,0,0,1,1.22-1.12,1.34,1.34,0,0,1,1.92,1.46,1.48,1.48,0,0,1-.13.51c-.41.85-.14,1.43.4,2.22a6.68,6.68,0,0,1,1.21,5.1,16.59,16.59,0,0,1-2.31,6.62c-.24.35-.32.81-.54,1.18s-.62.89-.91,1.31c-2.05-1.16-1.68-3.28-2.36-4.88-.13,0-.26,0-.28,0-.32.53-.71.9-1.38.7s-.74-.72-.85-1.23a4,4,0,0,1,.48-2.65c.27-.53.5-1.08.82-1.77a2.48,2.48,0,0,1-3.73-1.28,28.28,28.28,0,0,1-1-5A53.74,53.74,0,0,1,129.3,153c.15-1.47.3-2.95.59-4.4s.86-2.92,1.16-4.41c.6-3,1.15-6,1.62-9,.29-1.81.37-3.65.61-5.47a34.93,34.93,0,0,0-.19-9c-.35-2.73-.58-5.47-.87-8.21a9.84,9.84,0,0,0-.24-1c-1.14.43-2.2.79-3.22,1.25-2.11,1-4.19,2-6.29,3a20,20,0,0,0-5,3.54A3.71,3.71,0,0,0,116.08,122.42Zm32.64-15.48a1.94,1.94,0,0,0,.19.44,9.51,9.51,0,0,0,5.61,3.09,5.83,5.83,0,0,0,4.8-1.19c1-.78.86-1.53-.26-2.08a2.34,2.34,0,0,0-.62-.19A27.34,27.34,0,0,0,148.72,106.94Zm-9.38-.62-3.62-3.73c-.52,1.63-.07,3.12.1,4.78ZM138,172.53a2.36,2.36,0,0,0,.07-2.83C137.06,170.79,137,171.34,138,172.53Z"/><path d="M166.21,163c-1.51-1.29-2.91-2.39-4.17-3.62a8.67,8.67,0,0,0-2.18-1.12,13.91,13.91,0,0,0-5.09-1.5c-1.89-.26-3.82-.27-5.73-.39l-1.18-.08a1,1,0,0,1,1-1,20.71,20.71,0,0,1,6.62-.44,14.77,14.77,0,0,1,5.94,2.19,7.42,7.42,0,0,1,1.75,1.56c1,1.12,1.84,2.31,2.72,3.49A4.9,4.9,0,0,1,166.21,163Z"/><path d="M192.52,99.82a2.27,2.27,0,0,1-3.06-.48,6.74,6.74,0,0,1-5,0l-.08-.73a16.91,16.91,0,0,1-2.7-.6c-1.17-.46-2.26-1.13-3.4-1.66A19.16,19.16,0,0,1,174,93.65a70.72,70.72,0,0,1-9.83-9.59c-1.42-1.77-3.13-3.29-4.69-4.93-.9-.95-1.74-1.94-2.66-2.87A86.77,86.77,0,0,0,150.37,70c-1.33-1.11-2.51-2.41-3.76-3.63-.37-.36-.76-.71-1.15-1.07-.6-.56-1.26-1.07-1.81-1.68-1.47-1.62-2.91-3.25-4.32-4.92-1-1.2-1.93-2.48-2.91-3.7-.4-.5-.88-.93-1.41-1.48a4.61,4.61,0,0,0-.57.85,37.61,37.61,0,0,1-4,8.11,42.42,42.42,0,0,1-3.16,4.18,76.58,76.58,0,0,1-7.4,7.78,8.15,8.15,0,0,1-2.42,1.91.74.74,0,0,0-.32.22c-1.12,1.75-3.22,2.35-4.53,3.89a3.59,3.59,0,0,1-1.12.59l-.9-2.27v0l1-.58c.54-.32,1.11-.59,1.63-1a16.53,16.53,0,0,1,1.84-1.43,11.06,11.06,0,0,0,2.61-2c.91-.87,1.85-1.71,2.73-2.61a23.32,23.32,0,0,0,2-2.24c1.72-2.25,3.76-4.25,5.23-6.7a34.29,34.29,0,0,0,2-3.77,3.72,3.72,0,0,1-3.88.57,1.93,1.93,0,0,0-2,.46c-1.08,1-2.28,1.89-3.4,2.85a5.23,5.23,0,0,1-2.57,1.21c-.59.11-1.22.2-1.24,1.08,0,.21-.44.49-.73.61-.77.3-1.59.48-2.35.8-.94.4-1.84.91-2.77,1.35a1.2,1.2,0,0,1-.62.18c-1.39-.13-2.63.47-3.94.71a7,7,0,0,1-.92.06c-2,.08-2.32-.22-2.14-2.24a2.84,2.84,0,0,1,1.23-2.62l-.1.85c1.36.54,1.36.54,2-.57a6.33,6.33,0,0,0,1.54,1.1,6.44,6.44,0,0,0,1.92,0c.24.44,0,1-.32.91-1.12-.24-1.87.54-2.93.77a3.9,3.9,0,0,0,3.16,0c.74-.34,1.55-.54,2.32-.82a2.9,2.9,0,0,0,.53-.41l-1.28-.46c.87-.94,1.78-.63,2.78-.27,0-1.3,1-1.83,1.91-2.11a7.25,7.25,0,0,0,3.38-2c1-1,2.14-1.91,3.35-3-.48-.46-.82-.81-1.2-1.15-.91-.8-1.89-1.55-2.75-2.41s-.63-1.74.4-2.36a7.6,7.6,0,0,1,6.45-.46c.36.11.72.26,1.22.44.43-.92.88-1.77,1.22-2.65a1.17,1.17,0,0,0-.13-.94.89.89,0,0,1,.23-1.36A21.55,21.55,0,0,1,130.08,45a2.25,2.25,0,0,1,2.34.28,5.37,5.37,0,0,1,.8.83c.07-.89.17-1.7.2-2.52s-.18-.89-.94-.84a9.67,9.67,0,0,1-1.94,0,2.19,2.19,0,0,0-1.82.52c-1.59,1.36-3.18,2.72-4.79,4.07a56.75,56.75,0,0,1-4.47,3.6,3.56,3.56,0,0,1-3.58.55.59.59,0,0,0-.35-.09c-1,.34-.94-.38-1-1.06a9.26,9.26,0,0,0,1-.36c.57-.29,1.12-.61,1.67-.93.11-.06.17-.23.28-.27,1.26-.43,1.88-1.51,2.59-2.49,1.07-1.48,2.17-2.94,3.24-4.42.22-.31.37-.67.57-1a8.27,8.27,0,0,0-3-1.75A8.25,8.25,0,0,1,118,36.26c-.47-.58-.12-1.14.77-1.41a22.41,22.41,0,0,1,6.46-.91h.66c.54-1.57-.34-3.07-.06-4.53a8.79,8.79,0,0,0,1.61-.91c.29-.25.39-.73.69-1.36-1.47.06-2.7-.25-3.93.25a2.87,2.87,0,0,1-2.52-.1,14.52,14.52,0,0,0-2-.62c-1.1-.37-1.28-.74-.66-1.72a13.85,13.85,0,0,1,4.18-4.47,37.35,37.35,0,0,0,4.25-2.83,24,24,0,0,1,4.9-3c.58-.3.78-.67.52-1.26a15.56,15.56,0,0,0-1.53-3.3,1.92,1.92,0,0,1,0-2.81c-.74-.89-.3-1.63.15-2.43.68-1.22,1.31-2.46,1.91-3.73a1.88,1.88,0,0,1,2-1.16,5.31,5.31,0,0,1,3.8,1.46,19.18,19.18,0,0,0,2.37,1.8,1.66,1.66,0,0,1,.57,1.52c0,1.25,0,2.52.11,3.77.06,1.09.23,1.18,1.29,1.41a10.64,10.64,0,0,1,1.71.63c.32.13.61.41.94.45,1.35.2,2.07,1.2,2.85,2.13a1.44,1.44,0,0,1,.16,1.81,6.3,6.3,0,0,0-.61,1.44,2.82,2.82,0,0,1-1.18,1.5c-1.75,1.34-3.74,2.39-5.15,4.18a4.22,4.22,0,0,0-1,2.21c-.11,1.18-.24,2.35-.33,3.53A8.4,8.4,0,0,0,141,29c1.66-.37,3.29-.34,5.11-.8a15.46,15.46,0,0,0-1.17-1.34c-.91-.82-.92-.8-1-2.14,1.21-.62,2.39-1.25,3.6-1.81a4.26,4.26,0,0,1,3.88,1.28c.25.4.48.83.7,1.25.38.71-.08,1.27-.4,1.82a9,9,0,0,1-.85,1.08,16.79,16.79,0,0,1,2.53,2.16,9,9,0,0,1,1.52,3,1.84,1.84,0,0,1-2,2.24c-1.61,0-3.22.06-4.83.07a3.7,3.7,0,0,1-1.28-.21,1.91,1.91,0,0,0-2.16.52c-.65.68-1.1,1.54-1.71,2.27A12.69,12.69,0,0,1,139.3,42a16.41,16.41,0,0,1,7.3-.15c1.17.25,1.44-.06,1.44-1.51l-1.44-.48a1,1,0,0,1-.73-1.1,1,1,0,0,1,.77-1.07c1.33-.35,2.63-1,4.05-.22a2.22,2.22,0,0,1,1.06,1.08c.47,1.07.84,2.1-.07,3.15a4.89,4.89,0,0,0-.47,1c1.14.47,2.2.95,3.29,1.34a5.39,5.39,0,0,1,3.49,3.3,2.26,2.26,0,0,0,.53.88c.73.71.41,1.41.1,2.17a1.43,1.43,0,0,1-1.56.91,3.85,3.85,0,0,1-1.17-.16,19,19,0,0,0-5.6-1.18,12.52,12.52,0,0,1-2.42-.58c-1.06-.28-1.93-.34-2.69.8a20.45,20.45,0,0,1-2.64,2.71c-.57.59-1.11,1.21-1.72,1.89a1.11,1.11,0,0,0,.16.37c1.27,1.44,2.52,2.89,3.81,4.3,2.9,3.16,5.82,6.28,8.72,9.44,1.35,1.47,2.64,3,4,4.47s2.83,2.85,4.19,4.32c1.51,1.63,3,3.29,4.43,5a58.87,58.87,0,0,0,8.1,8,49.85,49.85,0,0,0,6,4.15c1.69,1,3.52,1.81,5.3,2.7a1,1,0,0,0,.24.08c1.42.41,2.83.83,4.25,1.2.66.18,1.36.28,2,.4.35,0,.6.14.46.57ZM134.4,36.89c.12-3.67.33-7.12.3-10.87a7.92,7.92,0,0,0-2.31,1.09,13,13,0,0,0-3,4.33,11.11,11.11,0,0,1,.88.78,6.25,6.25,0,0,1,1.36,1.72A6.12,6.12,0,0,0,134.4,36.89Zm3.51,7.46c-.69,1.19-1.25,2.31-.58,3.68a5.11,5.11,0,0,1,.37,1.62,4.87,4.87,0,0,0,.67,2.33c.66-.23,1.53-.27,1.88-.72a10,10,0,0,1,2.31-1.87c.44-.3.94-.57.8-1.21A1.55,1.55,0,0,0,142.27,47C140.7,46.41,139,46,137.91,44.35Zm-7.62,12.06a60.7,60.7,0,0,0,2.38-8.49c-.4.25-.6.3-.67.42-.86,1.46-1.72,2.93-2.54,4.41a1,1,0,0,0-.08.73C129.66,54.47,130,55.44,130.29,56.41Zm9.51-21.78c-.62,1.66-.83,4.17-.45,5l3.26-4.44A4.86,4.86,0,0,0,139.8,34.63Zm-5.22-21.42a3.28,3.28,0,0,0,.42-2.36,1.18,1.18,0,0,0-1.51-1.24c-.5.1-.77.4-.61.93A5.53,5.53,0,0,0,134.58,13.21Z"/><path d="M110.63,78.79a1.05,1.05,0,0,1-.75,1.21c-.53.18-1,.37-1,1.14,0,.52-.61.67-1.41.49.39-.81.39-.81.25-1.24a8.65,8.65,0,0,1,3-1.58Z"/><path d="M104.61,83.8a3.16,3.16,0,0,1,1.71-.87,16.05,16.05,0,0,0,2-.67,4.8,4.8,0,0,1-3.76,1.53Z"/><path d="M110.88,81.37l-1.45.87-.15-.27a1.91,1.91,0,0,1,1.42-1Z"/><path d="M192.54,99.79a1.6,1.6,0,0,1,1.38.32c-.65.28-1.12.43-1.4-.29Z"/><path d="M105.36,80.93l1.82-.35A1.35,1.35,0,0,1,105.36,80.93Z"/><path d="M104.6,83.79c-.58.53-.58.53-1.19-.2l1.2.21Z"/><path d="M62.85,464.06l.76-.48.18.1c-.54,1.12-1.07,2.23-1.62,3.34a11.54,11.54,0,0,0-.73,1.39,7.22,7.22,0,0,1-2.66,3.49,4.38,4.38,0,0,0-1.93,3.9A36.63,36.63,0,0,1,56.6,480a15.15,15.15,0,0,0,.6,5,9.16,9.16,0,0,1,.21,4.9c-.25.9-.59,1.15-1.36.65a6.46,6.46,0,0,1-2.63-3.32c-.24-.66-.38-1.34-.63-2a23.14,23.14,0,0,1-1.51-5.41,2.45,2.45,0,0,0-.45-1.05c-.93-1.36-1.91-2.69-2.81-4.07a3.59,3.59,0,0,1-.4-1.35,18.45,18.45,0,0,1,.21-6.11,7.48,7.48,0,0,1,1.77-3.88,3.49,3.49,0,0,1,.67-.61c1.2-.72,2.09-.26,2.1,1.15,0,1.7-.11,3.4-.17,5.09,0,.47-.05,1-.08,1.42.22.07.38.17.44.13,1.24-.8,2.52-1.56,2.82-3.18a14.5,14.5,0,0,0,.28-2.07c.1-3,1.13-5.9,1.57-8.87a10.55,10.55,0,0,1,1-2.56,8.53,8.53,0,0,0,.93-3.91c0-1-.22-1.28-1.11-1.53-.55-.16-1.12-.56-1.78-.14-.36,1.5-.66,3-1.12,4.53a18.09,18.09,0,0,1-1.27,2.85.72.72,0,0,1-1.2.27,12.67,12.67,0,0,1-1.48-1.45c-.73-.86-1.34-1.83-2.13-2.64a3.28,3.28,0,0,1,1.2-5.22,18.83,18.83,0,0,1,2.19-.87c1.06-.37,1.12-.41,1.15-1.57,0-.3,0-.61,0-.87-.11-.1-.17-.19-.24-.2a2.53,2.53,0,0,1-2.62-2.75c0-.65,0-1.31,0-2,0-.18-.06-.39,0-.52A20.24,20.24,0,0,1,53,434.71a5.39,5.39,0,0,1,.07.79c0,.57-.11,1.13-.09,1.69,0,.18.33.51.45.49a1.52,1.52,0,0,0,.66-.48c.07-.07,0-.25,0-.38,0-2-.06-4.09-.16-6.13-.05-1-.14-1-1.18-1.19-2.08-.45-4.15-.95-6.22-1.47a4.88,4.88,0,0,1-1.16-.59,1.19,1.19,0,0,1-.59-1.46,3.08,3.08,0,0,1,1.44-1.93,8.73,8.73,0,0,1,7.33-.62,3.08,3.08,0,0,0,.54.1c.47-1.17.28-2.51,1-3.71a3.18,3.18,0,0,1,.82,2.79,3.09,3.09,0,0,0,.78,2.77,8.34,8.34,0,0,1,1.59,3.83,2,2,0,0,1-.48,1.66c-1.76,1.55-1.16,3.48-1.18,5.38,1.41-.28,1.66-.63,1.63-2.09.91-.38,1.36-.22,1.64.69a5.4,5.4,0,0,1,.16,3.35,6.11,6.11,0,0,0-.31,1.26,1.51,1.51,0,0,1-1.08,1.36,2.87,2.87,0,0,0-2.27,3.29,7.46,7.46,0,0,1-.1,1,.77.77,0,0,0,0,.25c.91.52,1.72,1,2.56,1.45A3.51,3.51,0,0,1,60.7,450a1.61,1.61,0,0,1-.34,1,6.83,6.83,0,0,0-.93,3.74c-.12,1.78-.15,3.57-.33,5.35-.15,1.42-.48,2.83-.72,4.25a2.64,2.64,0,0,0,.07,1.35c.88-.94,1.81-1.84,2.62-2.85,1.28-1.59,2.51-3.23,3.7-4.89a2.94,2.94,0,0,0,.5-2.73,4.29,4.29,0,0,1,.25-2.82,2.89,2.89,0,0,1,1.6-1.65c.52-.23,1-.14,1.21.41.29.85.78,1.75.32,2.65-.89,1.76-.1,3.26.68,4.7A24,24,0,0,0,73.46,464a15.53,15.53,0,0,0,4,2.93A28.27,28.27,0,0,0,89,469.69a36.83,36.83,0,0,0,6.88-.61c1.5-.21,3-.61,4.47-.85.63-.11,1.37.21,1.77-.7,1.28,1,2.38.09,3.45-.29s2.25-.56,2.86-1.79c1.13.74,2-.22,2.83-.63,1.46-.69,2.81-1.58,4.21-2.36a1.3,1.3,0,0,1,.94-.12c-.17.21-.29.5-.5.62-2.43,1.37-4.79,2.89-7.32,4a86,86,0,0,1-9.3,3.48,53.09,53.09,0,0,1-9.63,1.71A14.88,14.88,0,0,1,86.3,472c-1.21-.15-2.4-.42-3.6-.62a21.93,21.93,0,0,1-5.89-2.11,15.67,15.67,0,0,1-4.07-3.05,51.35,51.35,0,0,1-5.46-6.5c-.16-.21-.33-.4-.58-.7l-1.62,2.3c-.16-1.41,1.53-2.12.9-3.61-.35.4-.75.65-.82,1-.19.89-.92,1.48-1.16,2.34a3.77,3.77,0,0,1-.52.88,2.65,2.65,0,0,0-.61,2.19c-.64.19-.72.72-.9,1.35C62.67,464.83,62.67,464.83,62.85,464.06Zm-8.24,13.15a11.63,11.63,0,0,0-1.4,1.1,1.4,1.4,0,0,0-.43,1,9.42,9.42,0,0,0,1.6,3.79C54.46,481.18,54.53,479.27,54.61,477.21Zm-3.67-5.41c.19-1.06.45-2.11.54-3.18s0-2.14,0-3.31A12,12,0,0,0,50.94,471.8Zm1.55-22.89a1.62,1.62,0,0,0-.2.49c0,.07.17.15.26.22a1.33,1.33,0,0,0,.23-.37C52.8,449.18,52.65,449.08,52.49,448.91Z"/><path d="M55.51,382c.79-.8,1.92-.75,2.89-1a27.82,27.82,0,0,1,4.17-.76,18.48,18.48,0,0,1,4.4-.05c1.51.16,3,.44,4.5.62a12.56,12.56,0,0,1,4.41,1.87c1.93,1,2.74,2.8,3.54,4.65a3.75,3.75,0,0,1,.14,2.43,8.55,8.55,0,0,1-1.82,3.43,40.42,40.42,0,0,1-4.8,5.16,26,26,0,0,0-2.21,2.57,29.09,29.09,0,0,1-2.16,2.28,6.14,6.14,0,0,1-1.31.73l-.25-.22a17.32,17.32,0,0,1,.7-1.86c1-2,1.92-3.93,3.06-5.79.92-1.52,2.14-2.85,3.16-4.31A33.85,33.85,0,0,0,76,388.24c.45-.86.32-1.18-.5-1.76a3.72,3.72,0,0,0-1.4-.68c-2-.3-4-.53-6-.75-.24,0-.49.16-.75.21a4.65,4.65,0,0,1-1.9.05,5.33,5.33,0,0,0-3.68.52,12.83,12.83,0,0,1-1.15.63c-.22.1-.56.22-.73.12-1-.63-1.93-.12-2.85.25a44.66,44.66,0,0,1-5.08,2c-1.92.53-3.6,1.56-5.42,2.21-3.31,1.18-6.14,3.27-9.32,4.67-1.39.62-2.68,1.45-4.05,2.11-2.51,1.21-5,2.37-7.59,3.53a2,2,0,0,1-1,.21,2.27,2.27,0,0,0-1.63.31.7.7,0,0,1-.24.09c-1.54.39-2.29-.36-1.8-1.93a7.44,7.44,0,0,1,2.66-4,57.3,57.3,0,0,1,5.67-3.75c2.25-1.23,4.65-2.19,7-3.27a1.26,1.26,0,0,1,.37-.13,8.55,8.55,0,0,0,1.92-.29c.52-.22.86-.83,1.36-1.1a6.56,6.56,0,0,1,1.7-.33,4.22,4.22,0,0,1,.88-.73,29.53,29.53,0,0,1,6-2.11c.87-.22,1.66-.75,2.51-1,.52-.17,1-1.09,1.69-.09,0,.06.94-.19,1-.4.24-1.1,1.07-.82,1.77-.88,0,.8.34.19.57.07Z"/><path d="M65.17,419.67c.35-.74.58-1.3.87-1.81.89-1.6,1.81-3.17,2.69-4.78a17.05,17.05,0,0,0,.67-1.71,6.7,6.7,0,0,0-1.24-.47c-1.7-.3-3.4-.64-5.12-.78a10.51,10.51,0,0,0-3,.37c-2.32.55-4.71.84-6.84,2.06a5,5,0,0,1-2.14.39c-.24,0-.62-.34-.72-.6a5.33,5.33,0,0,1,1.89-5.57,8,8,0,0,1,5.08-1.34c1.12.06,2.25,0,3.37.1s2.38.33,3.56.54a3.33,3.33,0,0,1,.8.4,4,4,0,0,0,.92.48,7.57,7.57,0,0,1,4.55,3c.46.58.9,1.17,1.34,1.77,1.27,1.76,1,3.41-.33,5.09a8.4,8.4,0,0,1-4.79,2.89A7.5,7.5,0,0,1,65.17,419.67Z"/><path d="M49.49,167a3.18,3.18,0,0,0-2,.39c-1.47.59-2.25.08-2.33-1.53a5.81,5.81,0,0,1,1.57-4.12,32,32,0,0,0,2.74-4.27,1.75,1.75,0,0,0,.14-.89c0-1.44,0-2.88,0-4.33,0-1.14-.23-1.39-1.39-1.41-1.75,0-3.49,0-5.24,0a8.76,8.76,0,0,0-3.09.35,1.23,1.23,0,0,1-1.45-.39,1.59,1.59,0,0,1,1.17-1.41,9.11,9.11,0,0,1,2.61-.78c2.43-.21,4.86-.28,7.47-.42.19-1,.4-2.09.65-3.23a4.67,4.67,0,0,1,.4-1.23,1.23,1.23,0,0,1,1.69-.49c.56.37.92,1.35.57,1.83-1,1.41-.33,2.95-.36,4.43,0,.2.37.43.6.61s.8.54,1.14.87a2.35,2.35,0,0,1,.63,2.75,2.68,2.68,0,0,0-.07,1.77,6.92,6.92,0,0,1,.12,1.93c0,1.39-.19,2.77-.19,4.16a3.62,3.62,0,0,1-.73,2.18,3,3,0,0,0-.57,1.24c-.22,1.68,0,1.88,1.71,1.86a16.17,16.17,0,0,1,7.51,1.43,4.74,4.74,0,0,1,2.32,2.88c.41,1.21-.42,2.23-1.19,3a34.8,34.8,0,0,1-3.32,2.69l-.2-.17a5.76,5.76,0,0,1,.38-.69c.48-.68,1-1.33,1.46-2,1.56-2.26,0-3.94-1.8-4.58-2.18-.76-4.3-.24-6.42.35a1.1,1.1,0,0,0-.79,1.07c-.2,1.38-.4,2.76-.65,4.13a5.12,5.12,0,0,1-1.73,3.55,2.45,2.45,0,0,1-3.33-.08,20.37,20.37,0,0,0-2.68-1.82,11,11,0,0,1-2.24-2.4c.59-2.74,2.39-4.11,4.49-5.21.58-.31,1.19-.55,1.77-.86C49.33,167.92,49.79,167.67,49.49,167Z"/><path d="M50.23,201.47a10,10,0,0,1-2,4.82c-.31.47-.65.92-1,1.37a2.42,2.42,0,0,1-3.36.57,15.45,15.45,0,0,1-6.18-7.51,24.41,24.41,0,0,1-1.46-7.14,2.31,2.31,0,0,1,1.25-2.64c.55-.26,1-.26,1.32.29,0,.12,0,.25,0,.29a2.89,2.89,0,0,0-.67,3.23,28.39,28.39,0,0,0,5.18,9.46c.78,1,1.7,1,2.85.07s2.14-1.58,3.22-2.36A7.21,7.21,0,0,1,50.23,201.47Z"/><path d="M65.93,188.65a7.39,7.39,0,0,1,1.25.69c1.72,1.57,3.27,3.27,3.77,5.64a10,10,0,0,1,.14,1.81,1,1,0,0,1-.69,1,.92.92,0,0,1-1.15-.32,8.42,8.42,0,0,1-2.2-3.63C66.68,192.23,66.35,190.62,65.93,188.65Z"/><path d="M53.07,86.14c.78,0,1.59,0,1.69-1.09,0-.1.27-.2.43-.26.6-.26,1.2-.51,1.82-.74a1.8,1.8,0,0,1,.75-.15c1.1.1,1.09.11,1.61-1l.33.72c.84-1.41,1.86-2.51,3.75-2.45-.44-1-1.58-1.93.26-2.86-.79-.42-1.28-.74-1.82-1S60.81,77,60,76.8c.49-.15.7-.29.88-.25a12.47,12.47,0,0,1,2,.52c1,.39,1.91.86,2.84,1.33a6.63,6.63,0,0,1,1.09.72c.73.61.85,1,.44,1.81a6.52,6.52,0,0,1-1.64,2.49c-.55.45-.88,1.19-1.45,1.6a44.26,44.26,0,0,1-5.46,3.49c-1,.53-2,1.23-3,1.76a5,5,0,0,1-.93.46,3.36,3.36,0,0,0-1.65,1.18,11.82,11.82,0,0,1-2.24,1.79,2.74,2.74,0,0,0-1.4,2.2c-.1,1.11-.2,2.3-1.41,2.91a.74.74,0,0,0-.27.44c-.4,1.37-.78,2.74-1.18,4.14,1.27.07,1.86-.33,1.89-1.53a2.57,2.57,0,0,1,1.36-2.2,1,1,0,0,1,1.47.24c.51.64.89,1.54,1.55,1.87s1.53,0,2.31,0a34.49,34.49,0,0,1,6.12.32c4,.9,7.86,2.3,10.6,5.71a9.91,9.91,0,0,1,1.87,4c.19.8.32,1.62.44,2.44a13.25,13.25,0,0,1-.72,6.43,43.16,43.16,0,0,1-4,8.35,13.12,13.12,0,0,1-2.2,2.9c-1.7,1.53-2.65,3.68-4.4,5.14-.24.2-.4.49-.66.64a8.09,8.09,0,0,0-2.41,2.36,1.19,1.19,0,0,1-1.2.61l0,0c.27-1.28,1.37-2,2.1-2.93s1.65-1.67,2.34-2.6c1.11-1.48,2.06-3.07,3.13-4.57a34,34,0,0,0,3.89-7.4,24.55,24.55,0,0,0,1.69-6,10.31,10.31,0,0,0-2.21-8.11,11.6,11.6,0,0,0-3.12-2.29,23.24,23.24,0,0,0-3.22-1.44,3.41,3.41,0,0,0-1.27-.24,48.41,48.41,0,0,0-5,0,13.51,13.51,0,0,0-3.26.9,1.69,1.69,0,0,0-.78,1c-.83,2.25-1.55,4.55-2.44,6.77a39.87,39.87,0,0,1-4,7,2.55,2.55,0,0,0-.51,1.94c.24,1.68.45,3.37.69,5a3.93,3.93,0,0,1,.15.64c0,.28-.07.68-.25.79a.9.9,0,0,1-.8-.16,4.33,4.33,0,0,1-2-2.83,3.38,3.38,0,0,0-.46-.92,5.22,5.22,0,0,0-1.27.67,11.81,11.81,0,0,1-4.66,2.25,4.88,4.88,0,0,1-2.44-.16,1.26,1.26,0,0,1-.8-1.39,22.82,22.82,0,0,0-.44-3.88,18.65,18.65,0,0,1,.14-3,15.86,15.86,0,0,1,.17-2,15.4,15.4,0,0,1,4.37-8.19c1.09-1.06,2.22-2.08,3.29-3.16a2.06,2.06,0,0,0,.59-1.09c.17-1.16.23-2.33.35-3.5.07-.65.2-1.29.27-1.94.06-.5.08-1,.13-1.79-1,.4-1.84.66-2.6,1a21.76,21.76,0,0,1-5.4,1.88,5.65,5.65,0,0,0-4.17,2.65,3.75,3.75,0,0,1-.66.71c-.63-.07-.87-.41-.85-.91a29.55,29.55,0,0,1,.21-3.65,7.35,7.35,0,0,1,2.53-4.48,22.15,22.15,0,0,1,5.47-3.55,2,2,0,0,1,.62-.18c2,0,3.57-1.34,5.41-1.86.16,0,.4-.16.42-.28.21-1,1-1.75,1.47-2.69,1-2.22,2.15-4.39,3.24-6.58a2.8,2.8,0,0,1,.32-.56c1.41-1.67,3.32-2.52,5.49-3.39-.22.75-.71.87-1.06,1.12-.53.37-1.11.69-1.62,1.1a3,3,0,0,0-1.1,2.28,18.46,18.46,0,0,1-.51,2.41c-.17.9-.35,1.79-.44,2.7A6.27,6.27,0,0,0,50,87.38l2.54-1Zm-11.31,29.1c-1.79,1.34-2.29,3.25-3.4,5,1.64.21,2.46-.8,3.24-1.65S41.85,116.52,41.76,115.24Zm4.64-3.57.21.09.43-.94-.25-.11Z"/><path d="M58.57,140.66c0,.25,0,.58-.11.72-.76.81-1.57,1.58-2.51,2.51a6.26,6.26,0,0,1,2.65-3.21Z"/><path d="M53.07,86.14l-.49.24c-.21-.1-.46-.21-.12-.42a1.61,1.61,0,0,1,.63-.09l0,0Z"/><path d="M53.09,85.87l.58-.48.13.24-.73.22Z"/><path d="M57.38,306.42l-1.52.21c1.27-1,2.25-1.86,3.3-2.62a1.53,1.53,0,0,0,.72-1.86,3.15,3.15,0,0,1,.58-2.94c.37-.44.24-.86-.36-1.13s-1.25-.39-1.86-.62c-1-.35-1-.59-.47-1.41A4.42,4.42,0,0,1,60.5,294c1.84-.43,3.66-.83,5.55,0a8.7,8.7,0,0,0,2.19-4.36,5.83,5.83,0,0,0-3.33.53c-.89.33-1.67,1-2.57,1.26-1.68.45-3.05,1.5-4.61,2.15-1,.43-1.19.76-1.07,1.78A28.28,28.28,0,0,1,57,299.1a9,9,0,0,0,.76,3.94,10.06,10.06,0,0,1,.37,1.18l-.23.22a2.67,2.67,0,0,1-.84-.36,7.77,7.77,0,0,1-2.58-4.86c-.2-2.3-.36-4.61-.45-6.91a15.26,15.26,0,0,1,.31-2.59,6.09,6.09,0,0,0,.15-1c-.13-2.87,1.35-5.07,3-7.19a10,10,0,0,1,1.66-1.66,1.14,1.14,0,0,1,1.94.64,2.55,2.55,0,0,1,.14,1,6.24,6.24,0,0,0,.21,2.71,1.71,1.71,0,0,1-.5,1.79c-.81.84-1.52,1.79-2.29,2.67a8.69,8.69,0,0,1-1.2,1.15,4.78,4.78,0,0,0-1.89,2.53c.44-.22.69-.32.92-.45,2.51-1.41,5-3,7.78-3.71a22.31,22.31,0,0,1,2.7-.43,2.62,2.62,0,0,1,.79,0,3.09,3.09,0,0,1,2.35,4.72A12.08,12.08,0,0,0,69,295a4.72,4.72,0,0,1-2.27,3.25,2.37,2.37,0,0,1-1.07,2.61,10.88,10.88,0,0,0-1.53,1.66c.29.92.81.92,1.49.67,1.43-.53,2.85-1.06,4.31-1.52a10.2,10.2,0,0,1,5.69.11,3.12,3.12,0,0,1,2.15,2.28,8.32,8.32,0,0,0,.34,1.26,2.55,2.55,0,0,1-.36,2.82,24.3,24.3,0,0,1-8.38,7.56,15.5,15.5,0,0,1-3,1.08,1.4,1.4,0,0,0-1.11,1.52c0,1.26-.2,2.52-.24,3.79a23.09,23.09,0,0,0,.12,3,23.52,23.52,0,0,1-1.49,11.05c-.49,1.3-1.19,2.52-1.78,3.78a5.46,5.46,0,0,0-.2.54c.87.36,1.7.68,2.5,1.06a2.4,2.4,0,0,1,.78.68c.53.64.72,1.25-.2,1.85-.61.4-1.1,1-1.7,1.42a6.56,6.56,0,0,1-5.26.88c-.48-.1-.59-.51-.45-.93a2.89,2.89,0,0,1,.48-.92c.9-1.12,1.83-2.2,2.72-3.32a2.29,2.29,0,0,0,.45-.91c.83-4,1.91-8,2-12.12,0-1.3-.18-2.61-.25-3.92-.08-1.7-.14-3.4-.19-5.1a9.1,9.1,0,0,0-.35-3.36c-.11-.25,0-.6,0-.9a4.25,4.25,0,0,0-.13-.88,17.49,17.49,0,0,1-.78-3.17l1.05.84a10,10,0,0,0,.11-3,5.29,5.29,0,0,0-1.1.32,8.9,8.9,0,0,0-3.16,2.48,1.9,1.9,0,0,0-.21,2.28,20.62,20.62,0,0,1,1.33,3.41,15.2,15.2,0,0,1,.34,1.55,4.44,4.44,0,0,1-1-.24,8,8,0,0,1-3.11-3.25,25.2,25.2,0,0,0-2.08-3.31,5.46,5.46,0,0,1-1-4.5l2.18-.53c-.41,1.44-.54,2.62.63,3.44l3.76-4-2.36,1.17-.16-.21.84-.88,1.15-.82-.17-.2C58,305.73,57.7,306.08,57.38,306.42Zm8.31,7.38c4.77-1.82,7.86-5.1,10.25-9.21a5.59,5.59,0,0,0-4.63-.6c-1.61.75-3.16,1.63-4.75,2.43a1.7,1.7,0,0,0-1,1.69c0,1.43-.11,2.87-.13,4.3A8.54,8.54,0,0,0,65.69,313.8Zm.87-25.09v.1l1.08.13,0-.23Z"/><path d="M27.6,315c.48-.66,1-1.31,1.45-2A67.5,67.5,0,0,1,37.14,304c1-1.05,2-2.21,3-3.28A21.06,21.06,0,0,1,42,298.9c.48-.4.7-.35,1.59,0-.44,1.87-.89,3.77-1.37,5.83.5,0,.87.05,1.23.11a21.89,21.89,0,0,1,2.93.52c.94.29,1.33,1,1.13,1.66-.39,1.19-1.18,1.83-2.14,1.71-.26,0-.51-.11-.84-.18-.66,1.25-1.28,2.49-2,3.67s-1.51,2.35-2.32,3.48c-.52.75-1.31.68-1.76-.18a4.59,4.59,0,0,1-.42-3.54c.71-2.43,1.4-4.86,2-7.3a14.41,14.41,0,0,0,.21-2.22c-.19.05-.39.05-.42.12-.62,1.61-2.23,2.3-3.24,3.56-.91,0-1,1.08-1.69,1.45a7.12,7.12,0,0,0-1.83,1.84,35.06,35.06,0,0,1-2.76,3.29c-1.55,1.41-2,3.27-2.61,5.13A12.4,12.4,0,0,1,26.63,320a.85.85,0,0,0-.12.66l1.19-.85c-.19.48-.25.67-.34.85l-1.59,3.14c-.32.65-.68.73-1.2.25A6.61,6.61,0,0,1,23,320.82a.86.86,0,0,1,.05-.5c.6-1.31,1.2-2.6,1.82-3.9a12.33,12.33,0,0,0,1-2.11,17.19,17.19,0,0,1,2-4.09A22.43,22.43,0,0,1,31,305.6a29.51,29.51,0,0,0,4.43-5.89c.63-1.13,1.61-2.07,2.24-3.2a39,39,0,0,0,1.91-4.28,5.35,5.35,0,0,1,1.64-2.55.91.91,0,0,1,.45,1.17c-.31,1.35-.64,2.69-1,4-.23.89-.45,1.78-.73,2.65a10.71,10.71,0,0,1-3.43,4.68c-.87.78-1.69,1.62-2.54,2.43-.62.6-1.25,1.19-1.89,1.78a12.19,12.19,0,0,0-3.54,5.07c-.38,1.14-.8,2.27-1.21,3.41Zm14.15-8.07-.38.05L41,309.18l.25.11a12.67,12.67,0,0,0,.89-1.66C42.22,307.47,41.9,307.16,41.75,306.92Z"/><path d="M36.28,319.64a7.36,7.36,0,0,1,4.52-1.07c1.46.09,2.36,1,3,2.54a1.09,1.09,0,0,1,0,.26c.12.83.66,1.93-.17,2.42a3.5,3.5,0,0,1-3.5.21,7.71,7.71,0,0,1-3.73-3.86C36.37,320,36.33,319.82,36.28,319.64Z"/><path d="M51.88,360.89a3,3,0,0,1-1.77-2.17,13.2,13.2,0,0,1-.32-7.1c1-3.65,1-7.41,1.55-11.11.08-.59.22-1.17.33-1.75l.28,0c0,1.76,0,3.51,0,5.27,0,1.92,0,3.83,0,5.75a6.51,6.51,0,0,1-.07,1.17,15.57,15.57,0,0,0,.21,5.69A19.76,19.76,0,0,1,51.88,360.89Z"/><path d="M6.85,274.77c.94-.2,1.8-.33,2.62-.59a35.66,35.66,0,0,1,11.82-2,28.27,28.27,0,0,0,9.29-1.31c2.87-.89,5.77-1.71,8.63-2.62A74.5,74.5,0,0,0,49,264.14c.2-.09.38-.2.55-.29-.09-1.61-.26-1.78-1.72-1.79a3,3,0,0,1-1,0c-1.67-.69-3.15.07-4.69.47s-2.81.64-4.22.92a1,1,0,0,1-.71-.22c2.41-1,5-1.23,7.34-2.38a6.34,6.34,0,0,1,0-1.81,3.59,3.59,0,0,1,1-1.37,4.61,4.61,0,0,0,1.45-4.24,14,14,0,0,1,0-2.75A4.87,4.87,0,0,1,47.2,249c1-2.37,1-4.95,1.52-7.42s.94-4.7,1.42-7.05c.08-.42.17-.84.29-1.4a14.5,14.5,0,0,1-1.49,0c-1.3-.14-2.6-.28-3.89-.48a1.93,1.93,0,0,1-1.27-2.5,7.87,7.87,0,0,1,1.16-2.61,19.8,19.8,0,0,1,6.29-5.65,5,5,0,0,0,2.69-3.18A19.47,19.47,0,0,1,55,215.76a2.34,2.34,0,0,1,4.09-.76,12.65,12.65,0,0,1,2,3.48,3.28,3.28,0,0,1-.58,3.34c-.2.23-.37.48-.56.73.09.23.17.44.26.63.76,1.56.78,1.58-.38,2.76a15.34,15.34,0,0,1-2,1.83,7.07,7.07,0,0,0-2.17,2.91c-.35.73-.1,1.45.59,1.55,1.53.22,2,1.4,2.54,2.55a19.06,19.06,0,0,1,1.61,8.41c0,3.06.17,6.1.42,9.15a5.86,5.86,0,0,1-.34,2,12,12,0,0,0-.48,3.87c5.15-1.14,10-2.78,15-4.38a6.92,6.92,0,0,1,0,1.86,1.28,1.28,0,0,1-.94.72,2.72,2.72,0,0,0-2,1.11A4.62,4.62,0,0,1,69.44,259q-2.7.46-5.4,1a4.35,4.35,0,0,0-1.06.47,17.25,17.25,0,0,1-1.93,1.05,44.76,44.76,0,0,0-6.56,3.74c-.55.33-1.16.56-1.73.86-1.7.88-3.36,1.83-5.09,2.62-1.45.67-3,1.16-4.48,1.74-.53.2-1,.42-1.57.65-1.8.79-3.58,1.6-5.38,2.36-.67.29-1.42.4-2.1.67a20.91,20.91,0,0,1-10.75,1.4,17.66,17.66,0,0,0-7.52.19c-1.54.47-3.08,1-4.57,1.57a15.46,15.46,0,0,1-8.84.82,9.52,9.52,0,0,0-1.31,0c-.73,0-1-.27-1.12-1a3.86,3.86,0,0,1,1.21-3.33A7.14,7.14,0,0,1,4.82,272c.92-.19,1.27.05,1.53,1,.08.29.08.61.15.9A9.79,9.79,0,0,0,6.85,274.77ZM58.91,255a25.13,25.13,0,0,0,.31-6.43c-.21-2.64-.44-5.29-.75-7.93a26.11,26.11,0,0,0-.8-3.69c-.18-.63-.59-.72-1.1-.34a3.28,3.28,0,0,0-1.43,1.75c0,.07.07.12.1.14l.35.18a2.67,2.67,0,0,1,1.72,2.67A25,25,0,0,1,57,244a1.05,1.05,0,0,1-1.08,1c-1.07,0-2.14,0-3.38,0a5.11,5.11,0,0,0-.27,2.42,6.57,6.57,0,0,0,1.53.3,4.31,4.31,0,0,1,2.42.84,2.45,2.45,0,0,1,1.2,2.43c-.08,1-.82,1.48-1.67,1.83-.34.14-.65.33-1,.5l0,.3C56.37,253.34,57.58,254.11,58.91,255Zm-.49,3.27c-.83-.76-1.42-.16-2,.08-.76.32-1.48.72-2.23,1.06a20,20,0,0,0-1.9.79c-1.14.68-1.23,1.07-.75,2.62C53.75,261.21,56.47,260.47,58.42,258.25Zm-5.52-4.48L53,254l.43-.23,0-.12Z"/><path d="M46.61,277c0,1.24-.68,1.75-1.73,1.44s-1.83-.56-2.71-.91a5.24,5.24,0,0,1-2.3-2c-.3-.42-.59-.85-.91-1.26a.86.86,0,0,1-.09-1.18c.31-.39.61-.93,1.24-.76a9.92,9.92,0,0,1,1.42.63c.5.24,1,.49,1.51.72.73.34,1.5.63,2.22,1A2.74,2.74,0,0,1,46.61,277Z"/><path d="M65.75,271c-3,.21-4.41-2.33-6.71-4a4.86,4.86,0,0,1,1.35-.62,21.27,21.27,0,0,1,2.88.05A3.07,3.07,0,0,1,65.75,271Z"/><path d="M72.33,351.14c-.28.13-.58.38-.88.38a10.28,10.28,0,0,1-6.16-2.19,5.85,5.85,0,0,1-.91-1.29,6.93,6.93,0,0,1,1.32-.24c1.17.06,2.34.13,3.5.29C70.61,348.28,71.44,348.72,72.33,351.14Z"/><path d="M48.28,316.09a.83.83,0,0,1-.74,1c-.3.06-.71.07-.85.26a1.06,1.06,0,0,1-1.48.38,8.63,8.63,0,0,1-2.1-1.45c-.41-.43-.23-1,.33-1.45a5.58,5.58,0,0,1,2.93-1C47.12,313.76,48.28,315.18,48.28,316.09Z"/><path d="M48,311.65a3.46,3.46,0,0,1,.59-.37c.5-.2.95-1,1.47-.53.75.66,1.65,1.33,1.62,2.53,0,.52-.24.81-.79.81A3.14,3.14,0,0,1,48,311.65Z"/><path d="M37.75,307l-.24.46-.18-.08.18-.47Z"/><path d="M39.19,305.28l-.18.12-.12-.27c.07,0,.16-.07.21-.05S39.16,305.21,39.19,305.28Z"/><path d="M58.62,510.14a63.92,63.92,0,0,1,6.68-15.39l.09-.15,0-.16a2.22,2.22,0,0,0-1.25-1.38c-2.74-1.21-9.17,1.66-15.38,4.43-4.81,2.14-9.35,4.17-11.78,4.18h-.09a4.38,4.38,0,0,1-4.46-.88,4.55,4.55,0,0,0-2.8-1.18h-.45l.08.45c.38,2,2,4.31,4,4.84h.1a15.45,15.45,0,0,1,1.58.09c4.2.31,8.36.49,9-1,.23-.54,0-1.17-.82-1.91,1.26-2,5.48-2.82,7.87-2.48H51l.08,0c4.18-1.39,6.66-1.67,7.4-.84s-.49,3.8-1.92,6.79c-2.06,4.32-4.62,9.7-3,13.8.8,2,2.54,3.52,5.18,4.53a12.4,12.4,0,0,0,4.35,1.35,1.25,1.25,0,0,0,1.05-.38c.43-.57,0-1.44-1.31-2.84L62.8,522l-.09,0c-4.5-1.45-6.56-2.73-7.1-4.41s.39-3.87,3-7.29Z"/></g></g></svg>