<svg viewBox="0 0 35.89 35" xmlns="http://www.w3.org/2000/svg"><path d="m3.6 6.9s-.06.05-.07.08l-3.53 15.47s0 .07.02.1l9.89 12.41s.06.05.09.05h15.87s.07-.02.09-.05l9.89-12.41s.03-.05.03-.07c0 0 0-.02 0-.03l-3.53-15.47s-.03-.07-.07-.08l-14.28-6.89s-.07-.02-.1 0zm5.09 4.08c.29.13.55.3.79.52.02.02.04.04.07.06l.36.32s.04.03.07.06c.02.02.04.04.07.06.02.02.04.03.07.06.02.02.04.04.07.06l.51.44s.04.03.07.06c.03.02.06.05.09.08l.14.12s.04.04.07.06c.02.02.05.04.08.07l.44.38s.03.02.05.04.04.04.07.06c.02.02.04.03.07.06.02.02.04.04.07.06.02.02.04.03.07.06l.21.18s.05.04.08.07c.02.02.04.03.07.06.02.02.04.04.07.06.02.02.04.03.07.06l.14.12s.04.04.09.07c.02.01.03.03.06.05.02.02.04.04.07.06.02.02.04.03.07.06.02.02.04.04.07.06.02.02.04.03.07.06l.14.13s.04.04.07.06c.02.02.04.04.07.06.02.02.04.03.07.06.02.02.04.04.07.06.02.02.04.03.07.06.02.02.04.04.07.06l.02.02s.03.02.05.04.04.04.08.07c.02.01.03.03.06.05.02.02.04.04.07.06.02.02.04.03.07.06.02.02.04.04.07.06.02.02.04.03.07.06.02.02.04.04.07.06.02.02.04.04.07.06.02.02.04.04.07.06.02.02.04.04.07.06.02.02.04.04.07.06.02.02.04.04.07.06.02.02.04.04.07.06.02.02.04.04.07.06.02.02.04.03.07.06.02.02.04.04.08.07.02.01.03.03.06.05.02.02.04.04.07.06.02.02.04.03.07.06.02.02.04.04.07.06.02.02.04.04.07.06l.07.07c.02.02.04.03.07.06.02.02.04.03.07.06.02.02.04.04.07.06.02.02.04.04.07.06.02.02.04.04.07.06.02.02.04.04.07.06.02.02.04.04.07.06.02.02.04.03.07.06.02.02.04.03.07.06.2.15.27.42.17.66-.11.23-.36.36-.62.3-.03 0-.06 0-.1-.01-.03 0-.05 0-.09-.01-.02 0-.05 0-.1-.01-.02 0-.05 0-.09-.01-.03 0-.05 0-.09-.01-.03 0-.05 0-.09-.01-.03 0-.05 0-.09-.01-.03 0-.05 0-.09-.01-.03 0-.05 0-.09-.01-.03 0-.05 0-.09-.01-.03 0-.06 0-.09-.01-.03 0-.06 0-.09-.01-.03 0-.06 0-.09-.01-.03 0-.06 0-.09-.01-.03 0-.06 0-.09-.01-.03 0-.06 0-.1-.02-.03 0-.05 0-.09-.01-.03 0-.05 0-.09-.01-.03 0-.05 0-.09-.01-.03 0-.06 0-.09-.01-.03 0-.06 0-.09-.01-.03 0-.06 0-.09-.01-.03 0-.06 0-.09-.01-.03 0-.06 0-.09-.01-.03 0-.06 0-.09-.01-.03 0-.06 0-.09-.01-.03 0-.06 0-.09-.01-.03 0-.06 0-.09-.01-.03 0-.06 0-.1-.02-.03 0-.06 0-.09-.01-.03 0-.06 0-.09-.01-.03 0-.06 0-.09-.01-.03 0-.06 0-.09-.01-.03 0-.06 0-.09-.01-.03 0-.06 0-.09-.01-.03 0-.05 0-.09-.01-.03 0-.06 0-.09-.01-.03 0-.06 0-.09-.01-.03 0-.06 0-.09-.01l-.19-.03s-.06 0-.1-.02c-.03 0-.06 0-.09-.01-.03 0-.06 0-.09-.01-.03 0-.05 0-.09-.01-.03 0-.06 0-.09-.01-.03 0-.06 0-.09-.01-.03 0-.06 0-.09-.01-.03 0-.06 0-.09-.01-.03 0-.06 0-.09-.01-.03 0-.06 0-.09-.01l-.28-.04s-.06 0-.1-.02c-.03 0-.06 0-.09-.01-.03 0-.06 0-.09-.01-.03 0-.06 0-.09-.01-.03 0-.06 0-.09-.01-.03 0-.06 0-.09-.01-.03 0-.06 0-.09-.01-.03 0-.06 0-.09-.01l-.47-.07s-.06 0-.1-.02c-.03 0-.06 0-.09-.01-.03 0-.05 0-.08-.01-.04 0-.07 0-.12-.01l-.38-.05s-.06 0-.1-.02c-.03 0-.06 0-.09-.01-.03 0-.06 0-.09-.01-.03 0-.06 0-.09-.01-.03 0-.06 0-.09-.01-.03 0-.06 0-.09-.01-.03 0-.06 0-.09-.01-.03 0-.06 0-.09-.01l-.47-.07s-.06 0-.09-.02c-.31-.04-.62-.12-.91-.25-1.13-.51-1.8-1.63-1.8-2.8 0-.42.09-.85.27-1.27.34-.75.95-1.32 1.72-1.6s1.6-.26 2.35.08zm18.53 6.03s-.06 0-.09.01c-.04 0-.08.01-.12.02-.03 0-.05 0-.08.01-.03 0-.06.01-.09.01l-.19.03s-.06 0-.11.02c-.03 0-.05 0-.08.01l-.19.03s-.06 0-.09.01c-.03 0-.06 0-.09.01-.03 0-.06.01-.09.01h-.1s-.06.02-.1.03c-.03 0-.05 0-.09.01-.03 0-.06.01-.09.01h-.1s-.06.02-.09.03c-.03 0-.06 0-.09.01-.03 0-.06.01-.09.01h-.1s-.06.02-.09.03c-.03 0-.06 0-.09.01-.03 0-.06 0-.09.01-.03 0-.06.01-.09.01s-.06 0-.09.01c-.03 0-.06 0-.09.01-.03 0-.06 0-.09.01-.03 0-.06.01-.09.01h-.1s-.06.02-.09.03c-.03 0-.06 0-.09.01-.03 0-.06.01-.09.01h-.1s-.06.02-.09.03c-.03 0-.06 0-.09.01-.03 0-.06 0-.09.01-.03 0-.06.01-.09.01s-.06 0-.09.01c-.03 0-.06 0-.09.01-.03 0-.06 0-.09.01-.03 0-.06.01-.09.01s-.06 0-.09.01c-.03 0-.06 0-.1.01-.03 0-.05 0-.09.01-.03 0-.06.01-.09.01s-.06 0-.09.01c-.03 0-.06 0-.09.01-.03 0-.06 0-.09.01-.03 0-.06 0-.1.01-.03 0-.06 0-.09.01-.03 0-.06 0-.1.01-.03 0-.05 0-.1.01-.03 0-.05 0-.09.01-.03 0-.06 0-.09.01-.03 0-.06 0-.09.01-.03 0-.06 0-.1.01-.03 0-.05 0-.09.01-.03 0-.06 0-.09.01-.03 0-.06 0-.1.01-.03 0-.05 0-.1.01-.03 0-.05 0-.09.01-.03 0-.05 0-.09.01-.03 0-.05 0-.09.01-.03 0-.05 0-.09.01-.03 0-.05 0-.09.01-.03 0-.05 0-.1.01-.02 0-.05 0-.09.01-.03 0-.05 0-.09.01-.03 0-.05 0-.1.01-.03 0-.05.01-.1.01-.25.05-.5-.08-.61-.3-.03-.07-.05-.15-.05-.22 0-.17.08-.34.23-.45l.07-.07c.02-.02.04-.03.07-.06.02-.02.04-.04.07-.06.02-.02.04-.04.07-.06.02-.02.04-.04.07-.06l.07-.07c.02-.02.04-.04.07-.06.02-.02.04-.04.07-.06.02-.02.04-.04.07-.06.02-.02.04-.04.07-.06.02-.02.04-.04.07-.06.02-.02.04-.04.07-.06.02-.02.04-.04.07-.06.02-.02.04-.04.07-.06.02-.02.04-.04.07-.07.02-.01.03-.03.07-.06.02-.02.04-.04.07-.06.02-.02.04-.04.07-.06l.07-.07s.04-.04.07-.06c.02-.02.04-.04.07-.06l.07-.06s.04-.04.07-.06c.02-.02.04-.04.07-.06.02-.02.04-.04.07-.06.02-.02.04-.04.07-.06.02-.02.04-.04.07-.06.02-.02.04-.04.08-.07.02-.02.04-.04.07-.06.01-.01.03-.02.04-.04l.02-.02s.04-.04.07-.06l.07-.07c.02-.01.03-.03.07-.06.02-.02.04-.04.07-.06.02-.02.04-.04.07-.06.02-.02.04-.04.07-.06.02-.02.04-.04.07-.06.01-.01.03-.02.04-.04l.1-.08s.04-.04.07-.06c.02-.02.04-.04.07-.06l.14-.12s.04-.04.07-.06l.07-.07s.04-.04.07-.06l.14-.12s.04-.04.08-.07c.01-.01.03-.02.04-.04l.1-.08s.04-.04.07-.06c.02-.02.04-.04.07-.06l.14-.12s.04-.04.07-.06l.15-.13s.03-.02.04-.04l.1-.09s.04-.04.07-.06l.07-.07s.04-.04.07-.06l.14-.12s.04-.04.08-.07c.01-.01.03-.02.04-.04l.1-.08s.04-.04.07-.06l.06-.06s.05-.05.09-.08c.01-.01.03-.02.04-.04l.1-.08s.04-.04.07-.06c.02-.02.04-.04.07-.06l.14-.13s.04-.04.07-.06l.29-.25s.04-.04.07-.06l.43-.37c.23-.21.5-.39.79-.52.75-.34 1.58-.37 2.35-.08s1.38.85 1.72 1.6.37 1.58.08 2.35-.85 1.38-1.6 1.72c-.29.13-.6.22-.91.26-.03 0-.06.01-.09.01l-.19.03s-.06 0-.09.01c-.03 0-.06 0-.11.02-.03 0-.05 0-.08.01h-.1s-.06.02-.09.03c-.03 0-.06 0-.09.01-.03 0-.06.01-.09.01h-.1s-.06.02-.09.03c-.03 0-.06 0-.1.01-.03 0-.06.01-.09.01h-.1s-.06.02-.09.03c-.03 0-.06 0-.09.01zm-1.3-5.64s-.04.04-.07.06c-.02.02-.04.04-.07.06l-.5.43s-.04.04-.07.06c-.02.02-.04.04-.07.06s-.06.05-.09.08l-.42.36s-.04.04-.07.06l-.07.06s-.04.04-.07.06c-.02.02-.04.04-.07.06 0 0-.02.02-.02.02-.02.01-.03.03-.05.05s-.04.04-.07.06c0 0-.02.02-.02.02-.02.01-.03.03-.05.05s-.04.04-.07.06l-.36.31s-.04.04-.07.06c-.02.02-.04.04-.07.06-.02.02-.04.04-.07.06-.02.02-.04.04-.07.06 0 0-.02.02-.02.02-.02.01-.03.03-.05.05s-.04.04-.07.06l-.07.06s-.04.04-.07.06l-.07.06s-.04.04-.07.06c-.02.02-.04.04-.07.06-.02.02-.04.04-.07.06l-.07.06s-.05.04-.07.06l-.07.06s-.04.04-.07.06c-.02.02-.04.04-.07.06 0 0-.02.02-.02.02-.02.01-.03.03-.05.05s-.04.04-.07.06l-.07.06s-.04.04-.07.06c-.02.02-.04.04-.07.06-.02.02-.04.04-.07.06-.02.02-.04.04-.07.06-.02.02-.04.04-.07.06-.02.02-.04.04-.07.06-.02.02-.04.04-.07.06-.02.02-.04.04-.08.07-.02.02-.04.04-.07.06l-.14.12s-.04.04-.07.06c-.02.02-.04.04-.07.06-.02.02-.04.04-.07.06-.02.02-.04.04-.07.06-.02.02-.04.04-.07.06-.02.02-.04.04-.07.06-.02.02-.04.04-.07.06-.02.02-.04.04-.07.06-.02.02-.04.04-.07.06-.02.02-.04.04-.08.07-.02.02-.04.03-.07.06-.02.02-.04.04-.07.06-.02.02-.04.03-.07.06-.02.02-.04.04-.07.06-.02.02-.04.04-.07.06-.02.02-.04.04-.07.06-.02.02-.04.04-.07.06-.02.02-.04.04-.07.06-.02.02-.04.04-.07.06-.02.02-.04.04-.07.06-.02.02-.04.04-.07.06-.02.02-.04.03-.07.06-.02.02-.04.03-.07.06-.02.02-.04.04-.08.07-.18.18-.46.21-.68.07-.16-.1-.25-.27-.25-.46 0-.07.01-.14.04-.2 0-.03.01-.05.03-.09 0-.03.01-.05.03-.09 0-.03.01-.05.02-.09 0-.03.01-.05.03-.09 0-.03.01-.05.02-.09 0-.03.01-.05.03-.09 0-.03.02-.05.03-.09 0-.03.01-.05.02-.09 0-.03.01-.05.03-.09 0-.03.02-.05.03-.09 0-.03.01-.05.02-.09 0-.03.01-.05.03-.09 0-.03.02-.05.03-.1 0-.03.01-.05.02-.09 0-.03.01-.05.03-.09 0-.03.02-.05.03-.1 0-.03.01-.05.02-.09 0-.03.01-.05.03-.09 0-.03.02-.06.03-.09 0-.03.02-.05.03-.1 0-.02.01-.05.02-.08 0-.03.02-.06.03-.09 0-.03.02-.05.03-.09 0-.03.02-.06.03-.09 0-.03.02-.06.03-.09 0-.03.02-.05.03-.09 0-.03.02-.06.03-.09 0-.03.02-.06.03-.09 0-.03.02-.05.03-.09 0-.03.02-.06.03-.09l.03-.09s.02-.05.03-.1c0-.02.01-.04.02-.09 0-.03.02-.06.03-.09 0-.03.02-.05.03-.1 0-.02.01-.04.02-.09 0-.03.02-.06.03-.09 0-.03.02-.06.03-.09 0-.03.02-.05.03-.09 0-.03.02-.06.03-.09l.03-.09s.02-.05.03-.09c0-.03.02-.06.03-.09l.03-.09s.02-.05.03-.09c0-.03.02-.06.03-.09l.03-.09s.02-.05.03-.09c0-.03.02-.06.03-.09 0-.03.02-.06.03-.09 0-.03.02-.05.03-.09 0-.03.02-.06.03-.09 0-.03.02-.06.03-.09l.05-.18s.02-.06.03-.09l.05-.18s.02-.06.03-.09l.05-.18s.02-.06.03-.09c0-.03.02-.06.03-.09l.03-.09s.02-.06.03-.09c0-.03.02-.06.03-.09l.03-.09s.02-.06.03-.09c0-.03.02-.06.03-.09l.03-.09s.02-.06.03-.09c0-.03.02-.06.03-.09l.05-.17s.02-.07.03-.12c0-.03.02-.06.02-.08l.03-.1s.02-.06.03-.09c0-.03.02-.06.02-.09l.05-.19s.02-.06.03-.09c0-.03.02-.05.03-.09l.03-.09s.02-.06.03-.09c0-.03.02-.06.02-.08l.03-.1s.02-.06.03-.09c0-.03.02-.06.03-.09.08-.3.21-.59.38-.86.91-1.42 2.82-1.84 4.24-.92 1.43.91 1.84 2.82.92 4.24-.17.27-.38.51-.63.71l-.07.06s-.04.04-.07.06c-.02.02-.04.04-.07.06zm-11.67-4.2c.17.26.3.55.38.86 0 .03.02.06.03.09l.03.09s.02.06.03.09l.03.09s.02.06.03.09l.03.09s.02.06.03.09l.05.18s.02.06.03.1c0 .03.02.05.03.09 0 .03.02.06.03.1 0 .03.02.05.03.09 0 .03.02.06.03.1.01.03.02.06.03.1 0 .02.01.05.02.08l.03.09s.02.06.03.09l.03.09s.02.06.03.09l.03.09s.02.06.03.09c0 .03.02.06.03.09 0 .03.02.06.03.09 0 .03.02.06.03.09l.05.18s0 .03.01.03c0 .02.01.04.02.06 0 .03.02.06.03.09l.03.09s.02.06.03.09l.03.09s.02.06.03.09l.03.09s.02.06.03.09c0 .03.02.06.03.1 0 .03.02.05.03.09 0 .03.02.06.03.09 0 .03.02.05.03.09 0 .03.02.06.03.09 0 .03.02.06.03.09 0 .03.02.06.03.09l.05.18s0 .03.01.03c0 .02.01.04.02.06 0 .03.02.06.03.09l.03.09s.02.06.03.09c0 .03.02.06.03.09 0 .03.02.06.03.09 0 .03.02.06.03.1 0 .03.02.05.03.09 0 .03.02.06.03.1 0 .03.02.05.03.09 0 .03.02.06.03.09 0 .03.02.05.03.09 0 .03.02.06.03.1 0 .03.02.05.03.09 0 .03.02.06.03.1 0 .03.02.05.03.11l.02.08s.02.05.03.09c0 .03.02.06.03.09 0 .03.02.05.03.09 0 .03.02.05.03.09 0 .03.02.06.03.09 0 .03.02.06.03.09 0 .03.02.06.03.1 0 .03.02.05.03.09 0 .03.02.06.03.1 0 .03.02.05.03.09 0 .03.02.06.03.09 0 .03.02.05.03.09 0 .03.02.06.03.1 0 .03.02.05.03.09 0 .03.02.06.03.1 0 .03.02.05.03.09 0 .03.02.05.03.09 0 .03.02.05.03.09 0 .03.02.05.03.09 0 .03.02.05.03.09 0 .03.02.05.03.09 0 .03.02.05.03.1 0 .02.02.05.03.09 0 .03.02.05.03.1.01.02.02.05.03.08 0 .03.02.05.03.1.01.02.02.05.03.09 0 .03.02.05.03.1.09.24 0 .51-.22.65-.21.14-.5.11-.69-.08-.02-.02-.04-.04-.08-.07-.02-.02-.04-.03-.07-.06-.02-.02-.04-.04-.07-.06-.02-.02-.04-.04-.07-.07-.02-.02-.04-.03-.07-.06-.02-.02-.04-.04-.07-.06-.02-.02-.04-.04-.07-.06-.02-.02-.04-.04-.07-.06-.02-.02-.04-.04-.07-.06-.02-.02-.04-.04-.07-.06-.02-.02-.04-.04-.07-.06-.02-.02-.04-.04-.07-.06-.02-.02-.04-.04-.07-.06-.02-.02-.04-.04-.07-.06-.02-.02-.04-.04-.07-.06-.02-.02-.04-.04-.07-.06-.02-.02-.04-.04-.07-.06-.02-.02-.04-.04-.07-.06-.02-.02-.04-.04-.07-.06-.02-.02-.04-.04-.07-.06-.02-.02-.04-.04-.07-.06-.02-.02-.04-.04-.07-.06-.02-.02-.04-.04-.07-.06-.02-.02-.04-.04-.07-.06-.02-.02-.04-.04-.07-.06-.02-.02-.04-.04-.07-.06-.02-.02-.05-.04-.07-.06l-.29-.25s-.04-.04-.07-.06c-.02-.02-.04-.04-.07-.06l-.07-.07s-.04-.04-.07-.06c-.02-.02-.04-.04-.07-.06l-.07-.07s-.04-.04-.07-.06c-.02-.02-.04-.04-.07-.06l-.07-.07s-.04-.04-.07-.06c-.02-.02-.04-.04-.07-.06-.02-.02-.04-.04-.07-.06-.02-.02-.04-.04-.07-.06-.02-.02-.04-.04-.07-.06l-.07-.07s-.04-.04-.07-.06c-.02-.02-.04-.04-.07-.06l-.07-.07s-.04-.04-.07-.06c-.02-.02-.04-.04-.07-.06l-.58-.5s-.04-.04-.07-.06l-.07-.07s-.04-.04-.07-.06c-.02-.02-.04-.04-.07-.06l-.07-.07s-.04-.04-.07-.06c-.02-.01-.03-.03-.05-.04 0 0-.02-.02-.02-.02-.02-.02-.04-.04-.07-.06-.02-.02-.04-.04-.07-.06l-.14-.12s-.04-.04-.07-.06l-.14-.13s-.04-.03-.06-.05c-.03-.02-.06-.05-.09-.08-.02-.02-.04-.04-.07-.06-.02-.02-.04-.04-.08-.07l-.14-.12s-.04-.04-.07-.06l-.07-.07s-.04-.04-.07-.06c-.02-.02-.04-.04-.07-.06l-.07-.07s-.04-.04-.07-.06c-.02-.02-.04-.04-.07-.06l-.07-.07s-.04-.04-.07-.06c-.02-.02-.04-.04-.07-.06-.25-.2-.46-.44-.63-.71-.33-.51-.49-1.09-.49-1.66 0-1.01.5-2 1.4-2.58 1.42-.92 3.33-.51 4.24.91zm-10.78 13.48c-.02-.15-.03-.3-.03-.45 0-.66.21-1.29.61-1.83.49-.66 1.21-1.08 2.02-1.2.31-.05.63-.04.95 0l.19.03s.06 0 .09.01c.03 0 .06 0 .09.01.03 0 .06 0 .09.01.03 0 .06 0 .09.01.03 0 .06 0 .09.01.03 0 .06 0 .09.01.03 0 .06 0 .09.01.03 0 .06 0 .1.02.03 0 .05 0 .09.01.03 0 .06 0 .09.01.03 0 .06 0 .09.01.03 0 .06 0 .09.01.03 0 .06 0 .09.01.03 0 .06 0 .09.01.03 0 .06 0 .09.01.03 0 .06 0 .09.01h.1s.07.02.12.03c.02 0 .05 0 .08.01.03 0 .06 0 .09.01h.1s.06.02.09.03c.03 0 .06 0 .09.01h.1s.06.02.09.03c.03 0 .06 0 .09.01h.1s.06.02.09.03c.03 0 .06 0 .09.01h.1s.06.02.09.03c.03 0 .06 0 .09.01h.1s.06.02.09.03c.03 0 .06 0 .09.01.03 0 .06 0 .09.01.03 0 .06 0 .09.01.03 0 .06 0 .09.01.03 0 .06 0 .09.01.03 0 .06 0 .09.01.03 0 .06 0 .09.01.03 0 .06 0 .09.01.03 0 .06 0 .09.01.03 0 .06 0 .09.01.03 0 .06 0 .09.01.03 0 .06 0 .09.01.03 0 .06 0 .09.01.03 0 .06 0 .09.01.03 0 .06 0 .09.01.03 0 .05 0 .09.02.03 0 .06 0 .09.01.03 0 .06 0 .09.01.03 0 .06 0 .09.01.03 0 .06 0 .09.01.03 0 .06 0 .09.01.03 0 .06 0 .09.01.03 0 .06 0 .09.01.03 0 .06 0 .1.01.03 0 .06 0 .09.01.03 0 .06 0 .09.01.03 0 .06 0 .1.02.03 0 .06 0 .09.01.03 0 .06 0 .09.01.03 0 .05 0 .1.02.03 0 .06 0 .09.01.03 0 .06 0 .09.01.03 0 .06 0 .1.02.03 0 .06 0 .09.01.03 0 .06 0 .09.01.03 0 .06 0 .1.02.03 0 .06 0 .09.01.03 0 .06 0 .09.01.03 0 .06 0 .1.02.03 0 .06 0 .09.01.03 0 .06 0 .09.01.03 0 .06 0 .1.02.03 0 .05 0 .09.01.03 0 .06 0 .09.01.03 0 .06 0 .1.02.03 0 .05 0 .09.01.03 0 .06 0 .09.01.03 0 .06 0 .1.02.03 0 .05 0 .09.01.03 0 .05 0 .1.01.03 0 .05 0 .09.01.03 0 .05 0 .09.01.03 0 .05 0 .1.01.25.02.46.21.5.46.03.25-.11.5-.36.59-.02.01-.05.02-.09.04-.02.01-.05.02-.09.04-.02.01-.05.02-.08.04-.02.01-.05.02-.09.04-.02.01-.05.02-.09.04-.02.01-.05.02-.09.04-.02.01-.05.02-.08.04-.03.01-.05.03-.09.04-.03.01-.05.02-.09.04-.03.01-.05.02-.09.04-.02.01-.05.02-.08.04-.03.01-.05.02-.09.04-.03.01-.05.03-.09.04-.02.01-.05.02-.09.04-.02.01-.05.02-.09.04-.02.01-.05.02-.09.04-.02.01-.05.02-.09.04-.02.01-.05.02-.09.04-.02.01-.05.02-.09.04-.02.01-.05.02-.09.04-.02.01-.05.02-.09.04-.02 0-.03.02-.05.02 0 0-.03.01-.03.01-.03.01-.05.02-.09.04-.03.01-.05.03-.09.04-.03.01-.05.02-.09.04-.03.01-.05.02-.09.04-.03.01-.05.03-.09.04-.03.01-.05.02-.09.04-.03.01-.05.03-.08.04l-.09.04s-.05.02-.09.04c-.02.01-.04.02-.09.04-.02.01-.04.02-.09.04-.02.01-.05.02-.09.04-.02.01-.05.02-.09.04-.02.01-.05.02-.09.04-.02.01-.05.03-.08.04l-.09.04s-.05.02-.09.04c-.03.01-.05.03-.09.04l-.09.04s-.05.02-.09.04c-.03.01-.05.03-.09.04l-.09.04s-.05.03-.08.04l-.09.04s-.05.02-.09.04c-.02.01-.04.02-.08.04-.03.01-.05.02-.09.04-.02.01-.05.02-.09.04-.02.01-.05.02-.09.04-.02 0-.03.02-.05.02 0 0-.03.01-.03.01-.03.01-.05.03-.08.04l-.18.08s-.05.03-.08.04l-.09.04s-.05.02-.09.04c-.03.01-.05.03-.09.04l-.09.04s-.05.03-.08.04l-.09.04s-.03.02-.05.02l-.04.02s-.04.02-.08.04c-.03.01-.05.02-.09.04-.02.01-.05.02-.09.04-.02.01-.05.03-.08.04l-.16.07s-.07.03-.11.05c-.03.01-.05.03-.08.04l-.09.04s-.05.02-.09.04c-.03.01-.05.03-.08.04l-.09.04s-.05.03-.08.04l-.18.08s-.05.02-.08.04c-.03.01-.05.02-.09.04-.02.01-.05.02-.09.04-.02.01-.05.03-.08.04l-.09.04s-.05.03-.08.04l-.18.08s-.05.03-.08.04l-.17.08c-.28.14-.59.23-.9.28-.81.12-1.62-.09-2.28-.58s-1.08-1.21-1.2-2.02zm4.89 2.49s.05-.02.09-.04c.03-.01.05-.02.09-.04.03-.01.05-.03.08-.04.04-.02.07-.03.11-.05.02-.01.05-.02.07-.03l.09-.04s.05-.03.08-.04l.52-.24s.05-.02.09-.04c.03-.01.05-.02.09-.04.03-.01.05-.02.08-.04l.12-.05s.03-.02.06-.02h.03s.03-.03.06-.04l.18-.08s.05-.02.09-.04c.03-.01.05-.03.08-.04l.43-.2s.05-.02.09-.04c.03-.01.05-.02.09-.04.03-.01.05-.03.08-.04l.35-.16s.05-.02.09-.04c.03-.01.05-.02.09-.04.02-.01.05-.02.08-.04.03-.01.05-.02.09-.04.03-.01.05-.02.08-.04h.03s.03-.03.06-.04h.03s.03-.03.06-.04.05-.02.09-.04c.03-.01.05-.02.09-.04.03-.01.05-.02.09-.04.03-.01.05-.03.08-.04l.35-.16s.05-.02.09-.04c.03-.01.05-.02.09-.04.03-.01.05-.02.09-.04.03-.01.05-.03.08-.04l.18-.08s.05-.02.09-.04c.03-.01.05-.02.09-.04.03-.01.05-.02.09-.04.02-.01.05-.02.09-.04.02-.01.05-.02.09-.04.02-.01.05-.02.1-.05.02-.01.04-.02.08-.03.02-.01.05-.02.09-.04.02-.01.05-.02.08-.04.03-.01.05-.02.09-.04.03-.01.05-.02.09-.04.03-.01.05-.02.09-.04.03-.01.05-.02.09-.04.03-.01.05-.03.09-.04.03-.01.05-.02.09-.04.03-.01.05-.02.09-.04.03-.01.05-.02.09-.04.03-.01.05-.02.09-.04.03-.01.05-.02.09-.04.02-.01.05-.02.09-.04.02-.01.05-.02.08-.04.03-.01.05-.02.09-.04.03-.01.05-.02.09-.04.03-.01.05-.02.09-.04.03-.01.05-.02.09-.04.02-.01.05-.02.09-.04.02-.01.05-.02.09-.04.02 0 .04-.02.07-.03.02-.01.04-.02.06-.03 0 0 .03-.01.03-.01.22-.13.51-.08.68.11.17.2.18.48 0 .71-.01.02-.03.05-.05.08-.01.02-.02.04-.04.06-.02.03-.03.05-.06.09-.01.02-.03.05-.05.08-.01.02-.03.05-.05.08-.01.02-.03.05-.05.08-.01.02-.03.05-.05.08-.01.02-.03.05-.05.08-.01.02-.02.04-.05.08-.01.02-.03.05-.05.08-.01.02-.03.05-.05.08-.01.02-.03.05-.05.08-.01.02-.03.05-.05.08-.01.02-.03.05-.05.08-.01.02-.03.05-.05.08-.01.02-.03.05-.05.08-.01.02-.03.05-.05.08-.01.02-.03.05-.05.08-.01.02-.03.05-.05.08-.01.02-.03.05-.05.08-.01.02-.03.05-.05.08-.01.02-.02.04-.03.05 0 0-.02.02-.02.03-.01.02-.02.04-.05.08l-.1.16s-.03.05-.05.08c-.01.02-.03.05-.05.08-.01.02-.03.05-.05.08-.01.02-.03.05-.05.08-.01.02-.03.05-.05.08-.01.02-.03.05-.05.08-.01.02-.03.05-.05.08-.01.02-.03.05-.05.08-.01.02-.03.05-.05.08-.01.02-.03.05-.05.08-.01.02-.02.04-.03.05 0 0-.02.02-.02.03-.01.02-.02.04-.03.05 0 0-.02.02-.02.03-.01.02-.02.04-.03.05 0 0-.02.02-.02.03l-.25.39s-.03.05-.05.08c-.01.02-.03.05-.05.08-.01.02-.03.05-.05.08-.01.02-.03.05-.05.08-.01.02-.03.05-.05.08-.01.02-.03.05-.05.08-.01.02-.03.05-.05.08l-.05.08s-.02.04-.03.05c0 0-.02.02-.02.03-.01.02-.02.04-.03.05 0 0-.02.02-.02.03-.01.02-.02.04-.03.05 0 0-.02.02-.02.03l-.4.63s-.03.05-.05.08c-.01.02-.03.05-.05.08-.01.02-.03.05-.05.08-.01.02-.03.05-.05.08l-.05.08s-.02.04-.03.05c0 0-.02.02-.02.03-.01.02-.02.04-.03.05 0 0-.02.02-.02.03l-.15.24s-.02.04-.05.08l-.36.56s-.03.04-.05.07-.03.05-.06.1l-.16.24s-.03.05-.05.08c-.01.02-.03.05-.05.08-.01.02-.03.05-.05.08-.01.02-.03.05-.05.08-.17.27-.37.51-.61.72-.62.54-1.41.8-2.23.75s-1.57-.43-2.1-1.05c-.49-.56-.75-1.27-.75-2.01 0-.07 0-.15 0-.22.06-.82.43-1.56 1.05-2.1.24-.21.51-.38.8-.5l.35-.16zm3.86 4.69.1-.16s.03-.05.05-.08c.01-.02.03-.05.05-.08l.1-.16s.03-.05.06-.09c.01-.02.02-.04.04-.07l.05-.08s.03-.05.05-.08c.01-.02.03-.05.05-.08l.31-.48s.03-.05.05-.08l.16-.25s.03-.05.05-.08c.01-.02.03-.05.06-.09.01-.02.02-.04.04-.07l.05-.08s.03-.05.05-.07c0 0 .02-.03.02-.03.01-.02.02-.04.04-.06l.1-.16s.03-.05.05-.08l.16-.24s.03-.05.05-.08l.16-.25s.02-.04.04-.07l.05-.08s.03-.05.05-.08c.01-.02.03-.05.06-.09.01-.02.02-.04.04-.07l.05-.08s.03-.05.06-.09c.01-.02.02-.04.04-.07s.03-.05.05-.08c.02-.02.03-.05.05-.08.01-.02.03-.05.04-.07 0 0 .02-.03.02-.03.01-.02.02-.04.04-.06l.1-.16s.03-.05.05-.08l.11-.16s.03-.05.06-.09c.01-.02.02-.04.04-.07l.05-.08s.03-.05.05-.08c.01-.02.03-.05.06-.09.01-.02.02-.04.04-.07s.03-.05.05-.08c.01-.02.03-.05.05-.08.01-.02.03-.05.05-.08l.05-.08s.03-.05.05-.08c.01-.02.03-.05.05-.08.01-.02.03-.05.05-.08.02-.02.03-.05.05-.08.01-.02.03-.05.05-.08.01-.02.03-.05.05-.08.01-.02.03-.05.05-.08s.03-.05.05-.08c.01-.02.03-.05.05-.08.01-.02.03-.05.05-.08s.03-.05.05-.08c.01-.02.03-.05.05-.08.01-.02.03-.05.05-.08.01-.02.03-.05.05-.08s.03-.05.05-.08c.01-.02.03-.05.05-.08.01-.02.03-.05.05-.08.01-.02.03-.05.05-.08.01-.02.03-.05.05-.08.01-.02.03-.05.05-.08.01-.02.03-.05.05-.08.01-.02.03-.04.05-.08.01-.02.03-.04.05-.08.01-.02.03-.05.05-.08.12-.22.39-.33.63-.26.23.07.39.28.39.53v.09.1s0 .05 0 .09v.1.09s0 .06 0 .1v.1.09.1.27s0 .06 0 .11v.09s0 .05 0 .09v.19s0 .09 0 .15v.28s0 .06 0 .1v.14.28s0 .09 0 .15v.06.23s.01.07 0 .09v.1s0 .04 0 .06v.04s0 .03 0 .04v.1.14.1s0 .04 0 .06v.04s0 .03 0 .04v.1.15.06.04s0 .04 0 .06v.04s0 .03 0 .04v.14.11s0 .04 0 .06v.04s0 .04 0 .06v.13s0 .07 0 .09v.1s0 .04 0 .06v.04s0 .04 0 .06v.04s0 .03 0 .04v.14.11s0 .04 0 .06v.13s0 .07 0 .09v.38s0 .06 0 .09v.29s0 .05 0 .08v.12.29s0 .07 0 .09v.38s0 .07 0 .09v.19s0 .06 0 .1v.09.2s0 .04 0 .06v.04s0 .06 0 .1v.09.1c0 .31-.03.63-.12.93-.23.79-.75 1.44-1.47 1.83s-1.55.48-2.34.25-1.44-.75-1.83-1.47c-.25-.46-.38-.96-.38-1.47 0-.29.04-.58.13-.87.09-.3.22-.59.4-.86.02-.03.03-.05.05-.08zm7.53 4.48c-.72-.39-1.24-1.04-1.48-1.83-.08-.28-.13-.57-.13-.87v-.73s0-.06 0-.1v-.38s0-.05 0-.09v-.13s0-.04 0-.06v-.38s0-.08 0-.12v-.27s0-.06 0-.1v-.41s0-.04 0-.06v-.13s0-.04 0-.06v-.13s0-.04 0-.06v-.03s0-.04 0-.06v-.03s0-.04 0-.06v-.03s0-.04 0-.06v-.38s0-.06 0-.1v-.78s0-.04 0-.06v-.03s0-.04 0-.06v-.13s0-.04 0-.06v-.13s0-.04 0-.06v-.19s0-.09 0-.14v-1.42s0-.05 0-.09c0-.03 0-.06 0-.1 0-.02 0-.06 0-.09 0-.02 0-.06 0-.1v-.85s0-.06 0-.1v-.08s0-.07 0-.1c0-.24.16-.45.39-.52.24-.07.51.04.64.28.02.02.03.04.05.08.02.02.03.05.05.08.02.02.03.04.05.08.02.02.03.04.05.08.02.02.03.05.05.08.02.02.03.05.05.08.02.02.03.05.05.08.02.02.03.05.05.08.02.02.03.05.05.08.02.02.03.05.05.08.02.02.03.05.05.08.02.02.03.05.05.08.02.02.03.05.05.08.02.02.03.05.05.08.02.02.03.04.05.08.02.02.03.05.05.08.02.02.03.04.05.08.02.02.03.05.05.08.02.02.03.04.05.08.02.02.03.04.05.08.02.02.03.05.05.08.02.02.03.04.05.08.01.02.02.04.05.08.02.02.03.05.05.08l.1.16s.03.05.05.08l.03.05s.02.02.02.03c.02.02.03.05.05.08.02.02.03.05.05.08l.05.08s.03.05.05.08c.02.02.03.05.05.08.02.02.03.05.05.08.02.02.03.05.05.08l.05.08s.03.05.05.08l.05.08s.03.05.05.08c.02.02.03.05.05.08.01.02.03.04.05.08.02.02.03.05.05.08l.05.08s.03.05.05.08c.02.02.03.05.05.08.01.02.02.03.03.05 0 0 .02.02.02.03.02.02.03.05.05.08.02.02.03.05.05.08.02.02.03.05.05.08l.39.61s.02.02.02.03l.15.24s.03.05.05.08c.02.02.03.05.05.08.01.02.03.04.05.08.02.02.03.05.05.08l.05.08s.03.05.05.08l.05.08s.03.04.05.08c.01.02.03.04.05.07.02.02.03.04.05.07l.07.11s.03.05.05.08l.05.08s.03.04.05.08c.02.02.03.05.05.08l.05.08s.03.05.05.08l.05.08s.03.05.05.08l.51.8c.18.26.31.55.4.85.23.79.14 1.62-.25 2.34s-1.04 1.24-1.83 1.48c-.79.23-1.62.14-2.34-.25zm4.93-3.9c-.24-.21-.44-.45-.61-.72l-.07-.1s-.02-.03-.05-.07l-.04-.07s-.03-.05-.05-.08l-.15-.24s-.04-.06-.06-.1c-.02-.02-.03-.04-.05-.09l-.21-.32s-.02-.03-.03-.05c0 0-.02-.03-.02-.03-.01-.02-.02-.03-.04-.06-.02-.02-.03-.05-.05-.08l-.2-.32s-.03-.05-.05-.08-.03-.05-.05-.08l-.07-.1s-.02-.03-.03-.05c0 0-.02-.03-.02-.03-.01-.02-.02-.03-.03-.05 0 0-.02-.03-.02-.03-.01-.02-.02-.03-.04-.06-.02-.02-.03-.05-.05-.08l-.2-.32s-.03-.05-.05-.08c-.02-.02-.03-.05-.05-.08l-.07-.1s-.02-.03-.03-.05c0 0-.02-.03-.02-.03-.01-.02-.02-.03-.04-.06-.02-.02-.03-.05-.05-.08l-.15-.23s-.02-.03-.02-.03c-.01-.02-.02-.03-.04-.06-.02-.02-.03-.05-.05-.08-.02-.02-.03-.05-.05-.08-.02-.02-.03-.05-.07-.1-.01-.02-.02-.03-.03-.05 0 0-.02-.03-.02-.03-.01-.02-.02-.03-.04-.06-.02-.02-.03-.05-.05-.08-.02-.02-.03-.05-.05-.08l-.12-.18s-.02-.03-.04-.06c-.02-.02-.03-.05-.05-.08-.02-.02-.03-.05-.05-.08-.02-.02-.03-.05-.05-.08l-.07-.1s-.02-.03-.04-.06c-.02-.02-.03-.05-.05-.08-.02-.02-.03-.05-.05-.08-.02-.02-.03-.05-.05-.08-.02-.02-.03-.05-.06-.1-.01-.02-.02-.03-.04-.06-.02-.02-.03-.05-.05-.08-.02-.02-.03-.05-.05-.08-.02-.02-.03-.05-.05-.08-.02-.02-.03-.05-.06-.09l-.04-.07s-.03-.05-.05-.08c-.02-.02-.03-.05-.05-.08-.02-.02-.03-.05-.05-.08-.02-.02-.03-.05-.05-.08-.02-.02-.03-.05-.05-.08-.02-.02-.03-.05-.05-.08-.02-.02-.03-.05-.05-.08-.02-.02-.03-.05-.05-.08-.02-.02-.03-.05-.05-.08-.02-.02-.03-.05-.05-.08-.02-.02-.03-.05-.05-.08-.02-.02-.03-.04-.05-.08-.02-.02-.03-.04-.05-.08-.02-.02-.03-.05-.05-.08-.02-.02-.03-.04-.05-.08-.02-.02-.03-.05-.05-.08-.02-.02-.03-.05-.05-.08-.02-.02-.03-.05-.05-.08-.02-.02-.03-.04-.05-.08-.02-.02-.03-.04-.05-.08-.02-.02-.03-.04-.05-.08-.01-.02-.02-.03-.04-.06-.02-.02-.03-.04-.05-.08-.16-.2-.15-.49.02-.69s.45-.24.7-.11c.02 0 .05.02.07.03 0 0 .03.01.03.02.01 0 .03.01.05.02.03 0 .05.02.09.04.03.01.05.02.09.04.02.01.05.02.09.04.03.01.05.02.09.04.03.01.05.02.09.04.03.01.05.02.09.04.03.01.05.02.09.04.03.01.05.02.09.04.03.01.05.02.09.04.03.01.05.02.09.04.03.01.05.02.09.04.03.01.05.02.09.04.03.01.05.02.09.04.03.01.05.02.09.04.03.01.05.02.09.04.03.01.05.02.09.04.03.01.05.02.09.04.03.01.05.02.09.04.03.01.05.02.09.04.03.01.05.02.09.04.03.01.05.02.09.04.03.01.05.02.09.04.03.01.05.02.09.04.03.01.05.02.09.04.03.01.05.02.09.04.03.01.05.02.09.04.03.01.05.02.09.04.03.01.05.02.09.04.03.01.05.02.09.04.03.01.05.02.09.04.03.01.05.02.09.04.03.01.05.02.09.04.03.01.05.02.09.04.03.01.05.02.09.04.03.01.05.02.09.04.03.01.05.02.09.04.03.01.05.02.09.04.03.01.05.02.09.04.03.01.05.02.09.04.03.01.05.02.09.04.03.01.05.02.09.04.03.01.05.02.09.04.03.01.05.02.09.04.03.01.05.02.09.04.03.01.05.02.09.04.03.01.05.02.09.04.03.01.05.02.09.04.03.01.05.02.09.04.03.01.05.02.09.04.03.01.05.02.09.04.02 0 .04.02.08.04l3.12 1.41c.29.12.56.29.8.5 1.28 1.11 1.42 3.05.31 4.33s-3.05 1.42-4.33.31zm4.27-5.21c-.32-.05-.62-.14-.9-.28l-.09-.04s-.05-.02-.09-.04l-.26-.12s-.05-.02-.09-.04c-.03-.01-.05-.02-.08-.04l-.26-.12s-.05-.02-.09-.04l-.26-.12s-.05-.02-.09-.04l-.26-.12s-.05-.02-.09-.04c-.03-.01-.07-.03-.11-.05-.02 0-.05-.02-.07-.03-.03-.01-.05-.02-.09-.04l-.26-.12s-.05-.02-.09-.04c-.03-.01-.05-.02-.08-.04l-.17-.08s-.05-.02-.09-.04c-.03-.01-.05-.02-.08-.04l-.26-.12s-.05-.02-.09-.04l-.26-.12s-.05-.02-.09-.04c-.03-.01-.05-.02-.08-.04l-.17-.08s-.05-.02-.09-.04c-.03-.01-.05-.02-.08-.04l-.17-.08s-.05-.02-.09-.04c-.03-.01-.05-.02-.09-.04-.03-.01-.05-.02-.08-.04l-.17-.08s-.05-.02-.09-.04c-.03-.01-.05-.02-.08-.04l-.17-.08s-.05-.02-.09-.04c-.03-.01-.05-.02-.09-.04-.03-.01-.05-.02-.08-.04l-.09-.04s-.05-.02-.09-.04c-.03-.01-.05-.02-.09-.04-.03-.01-.05-.02-.08-.04l-.09-.04s-.05-.02-.09-.04c-.03-.01-.05-.02-.09-.04-.03-.01-.05-.02-.09-.04-.03-.01-.05-.02-.08-.04l-.09-.04s-.05-.02-.09-.04c-.03-.01-.05-.02-.09-.04-.03-.01-.05-.02-.09-.04-.03-.01-.05-.02-.08-.04-.03-.01-.05-.02-.09-.04-.03-.01-.05-.02-.09-.04-.03-.01-.05-.02-.09-.04-.03-.01-.05-.02-.09-.04-.03-.01-.05-.02-.09-.04-.03-.01-.05-.02-.09-.04-.03-.01-.05-.02-.09-.04-.03-.01-.05-.02-.09-.04-.02-.01-.05-.02-.09-.04-.02 0-.05-.02-.08-.04-.03-.01-.05-.02-.09-.04-.03-.01-.05-.02-.09-.04-.03-.01-.05-.02-.09-.04-.02 0-.05-.02-.09-.04-.02 0-.05-.02-.08-.04-.03-.01-.05-.02-.09-.04-.03-.01-.05-.02-.09-.04-.24-.09-.38-.34-.35-.59.04-.25.25-.45.52-.47.02 0 .05 0 .09-.01.03 0 .05 0 .1-.01.02 0 .05 0 .09-.01.02 0 .05 0 .09-.01.03 0 .05 0 .09-.01.03 0 .05 0 .09-.01.03 0 .05 0 .09-.01.03 0 .05 0 .09-.01.03 0 .05 0 .1-.01.03 0 .05 0 .09-.01.03 0 .06 0 .1-.01.03 0 .06 0 .09-.01.03 0 .06 0 .1-.01.03 0 .06 0 .09-.01.03 0 .05 0 .1-.01.03 0 .05 0 .09-.01.03 0 .06 0 .1-.01.03 0 .06 0 .09-.01.03 0 .06 0 .1-.01.03 0 .06 0 .09-.01.03 0 .05 0 .1-.01.03 0 .05 0 .09-.01.03 0 .06 0 .1-.01.03 0 .06 0 .09-.01.03 0 .06 0 .1-.01.03 0 .06 0 .09-.01.03 0 .06 0 .1-.01.03 0 .05 0 .09-.01.03 0 .06 0 .1-.01.03 0 .06 0 .09-.01.03 0 .06 0 .1-.01.03 0 .06 0 .09-.01.03 0 .06 0 .1-.01.03 0 .05 0 .09-.01.03 0 .06 0 .1-.01.03 0 .06 0 .09-.01.03 0 .06 0 .1-.01.03 0 .06 0 .09-.01.03 0 .06 0 .1-.01.03 0 .06 0 .09-.01.03 0 .06 0 .1-.01.03 0 .06 0 .09-.01.03 0 .06 0 .1-.01.03 0 .06 0 .09-.01.03 0 .06 0 .1-.01.03 0 .05 0 .09-.01.03 0 .06 0 .1-.01.03 0 .06 0 .09-.01.03 0 .06 0 .1-.01.03 0 .06 0 .09-.01.03 0 .06 0 .1-.01.03 0 .06 0 .09-.01.03 0 .06 0 .1-.01.03 0 .06 0 .09-.01.03 0 .06 0 .1-.01.03 0 .06 0 .09-.01.03 0 .06 0 .1-.01.03 0 .06 0 .09-.01.03 0 .06 0 .09-.01.03 0 .06-.01.09-.01s.06 0 .09-.01c.03 0 .06-.01.1-.01.03 0 .06 0 .09-.01.03 0 .06-.01.09-.01s.06 0 .09-.01c.03 0 .06-.01.09-.01s.06 0 .09-.01c.03 0 .06-.01.09-.01h.09s.07-.02.11-.03c.03 0 .06-.01.09-.01s.06 0 .09-.01c.03 0 .06-.01.09-.01s.06 0 .1-.01c.03 0 .06-.01.09-.01s.06 0 .09-.01c.03 0 .06-.01.09-.01s.06 0 .09-.01c.03 0 .06-.01.09-.01s.06 0 .09-.01c.03 0 .06-.01.1-.01.03 0 .06 0 .09-.01.03 0 .06-.01.09-.01s.06 0 .09-.01c.03 0 .06-.01.09-.01s.06 0 .09-.01c.03 0 .06-.01.1-.01.03 0 .06 0 .09-.01.03 0 .06-.01.09-.01.31-.05.63-.05.94-.01.81.12 1.53.54 2.02 1.2s.7 1.47.58 2.28-.54 1.53-1.2 2.02-1.46.7-2.28.58zm-7.94-16.23c0 .32-.05.63-.15.94 0 .03-.02.06-.02.09l-.03.1s-.02.06-.02.09l-.04.13s-.01.04-.02.06c0 .03-.02.06-.03.11 0 .02-.01.04-.02.07 0 .03-.02.06-.02.09l-.09.3s-.01.04-.02.07c0 .03-.02.06-.02.09l-.03.1s-.02.06-.02.08l-.03.1s-.02.06-.02.09l-.06.2s-.02.06-.02.09l-.03.1s-.02.06-.02.08v.04s-.02.04-.03.06l-.03.1s-.02.06-.02.08l-.03.1s-.02.06-.02.08v.04s-.02.04-.03.06c0 .03-.02.06-.03.11 0 .02-.01.04-.02.06v.03s-.02.04-.03.06c0 .03-.02.06-.02.08v.04s-.02.04-.03.06c0 .03-.02.06-.03.11 0 .02-.01.04-.02.07 0 .03-.02.06-.02.09l-.03.09s0 .03 0 .03c0 .02-.01.04-.02.07 0 .03-.02.06-.03.11 0 .02-.01.04-.02.07 0 .03-.02.06-.02.09l-.03.1s-.02.06-.02.08v.04s-.02.04-.03.06-.02.05-.03.09c0 .03-.02.06-.02.08l-.03.1s-.02.06-.02.08v.04s-.02.04-.03.06c0 .03-.02.06-.03.11 0 .02-.01.04-.02.07 0 .03-.02.05-.03.09 0 .03-.02.06-.03.11 0 .02-.01.04-.02.07 0 .03-.02.06-.03.11 0 .02-.01.04-.02.07 0 .03-.02.06-.02.09l-.03.1s-.02.05-.03.09c0 .03-.02.06-.03.09 0 .03-.02.05-.03.09 0 .03-.02.06-.02.09l-.03.1s-.02.05-.03.1c0 .02-.01.05-.02.08 0 .03-.02.05-.03.09 0 .03-.01.05-.03.09 0 .03-.02.05-.03.09 0 .03-.02.06-.03.09 0 .03-.02.05-.03.09 0 .03-.02.05-.03.09 0 .03-.01.05-.03.09 0 .03-.02.05-.03.09 0 .03-.01.05-.03.09 0 .03-.02.05-.03.09 0 .03-.02.06-.03.09 0 .03-.02.05-.03.09 0 .03-.02.05-.03.1 0 .03-.01.05-.02.09 0 .03-.02.05-.03.09 0 .02-.01.05-.02.09 0 .03-.02.05-.03.1 0 .03-.01.05-.02.09 0 .03-.02.05-.03.09 0 .03-.01.05-.03.1 0 .03-.01.05-.02.09 0 .03-.02.05-.03.1 0 .03-.01.05-.03.09 0 .03-.01.05-.03.1-.05.25-.28.43-.53.43s-.47-.18-.53-.43c0 0 0-.01 0-.02 0-.03-.02-.05-.03-.09 0-.03-.02-.05-.03-.1 0-.02-.02-.05-.03-.09 0-.03-.02-.05-.03-.09 0-.03-.02-.05-.03-.09 0-.03-.02-.05-.03-.09 0-.03-.02-.05-.03-.09 0-.03-.02-.05-.03-.09 0-.02-.02-.05-.03-.09 0-.03-.02-.05-.03-.09 0-.03-.02-.05-.03-.09 0-.02-.01-.05-.03-.09 0-.03-.02-.05-.03-.09 0-.03-.02-.05-.03-.09 0-.03-.02-.05-.03-.09 0-.03-.02-.05-.03-.09 0-.03-.02-.06-.03-.09 0-.03-.02-.05-.03-.09 0-.03-.02-.05-.03-.09 0-.03-.02-.05-.03-.09 0-.03-.02-.05-.03-.09 0-.03-.02-.05-.03-.09 0-.02-.01-.04-.03-.09 0-.03-.02-.06-.03-.1 0-.03-.02-.05-.03-.08 0-.03-.02-.06-.03-.1 0-.03-.02-.05-.03-.09 0-.02-.01-.05-.03-.09 0-.03-.02-.05-.03-.09 0-.02-.01-.04-.02-.05v-.03s-.03-.06-.04-.1l-.03-.09s-.02-.06-.03-.1c0-.03-.02-.05-.03-.09 0-.03-.02-.05-.03-.09 0-.03-.02-.05-.03-.09 0-.02-.01-.04-.03-.09 0-.03-.02-.06-.03-.09 0-.02-.01-.04-.03-.09 0-.03-.02-.06-.03-.09 0-.02-.01-.04-.02-.05v-.04s-.03-.05-.04-.09c0-.03-.02-.05-.03-.09 0-.02-.01-.04-.03-.09 0-.03-.02-.06-.03-.09 0-.02-.01-.04-.02-.05v-.04s-.03-.06-.04-.1l-.03-.09s-.01-.04-.02-.05v-.04s-.03-.06-.04-.1c0-.02-.01-.04-.02-.05v-.03s-.03-.06-.04-.1l-.03-.09s-.02-.06-.03-.1c0-.02-.01-.04-.03-.09l-.03-.09s-.02-.06-.03-.1c0-.02-.01-.04-.03-.09 0-.03-.02-.06-.03-.09 0-.02-.01-.04-.03-.09 0-.03-.02-.06-.03-.09 0-.02-.01-.04-.02-.05v-.04s-.02-.04-.04-.09c0-.03-.02-.06-.03-.09 0-.02-.01-.04-.03-.09 0-.03-.02-.06-.03-.09 0-.02-.01-.04-.02-.05v-.04s-.03-.06-.04-.1l-.03-.09s-.01-.04-.02-.05l-.04-.12s-.02-.05-.02-.08v-.03s-.03-.06-.04-.1c0-.02-.01-.04-.02-.05v-.03s-.03-.06-.04-.1l-.05-.18s-.02-.06-.03-.1l-.03-.09s-.02-.06-.03-.1l-.11-.36s-.02-.06-.03-.1l-.03-.09s-.02-.06-.03-.1c0-.02-.01-.04-.03-.09l-.03-.09c-.1-.3-.14-.62-.14-.93 0-1.69 1.38-3.07 3.07-3.07s3.07 1.38 3.07 3.07z" fill="#fff"/></svg>