<svg xmlns="http://www.w3.org/2000/svg" viewBox="0 0 80.85 34.4"><g id="Layer_2" data-name="Layer 2"><g id="Fix_要素" data-name="Fix 要素"><path d="M2.71,29.23a.07.07,0,0,0-.07.07V31H.53V29.3a.07.07,0,0,0-.07-.07H.08A.07.07,0,0,0,0,29.3v3.87a.07.07,0,0,0,.07.07H.46a.07.07,0,0,0,.07-.07v-1.7H2.64v1.7a.07.07,0,0,0,.07.07h.38a.07.07,0,0,0,.07-.07V29.3a.07.07,0,0,0-.07-.07Z"/><path d="M8.72,30.33H8.31a.08.08,0,0,0-.06,0l-.8,2,0,.1,0-.11-.82-2a.08.08,0,0,0-.06,0H6.08a.05.05,0,0,0,0,0,.06.06,0,0,0,0,.07l1.15,2.72L7,33.51c-.09.19-.23.41-.46.41a.55.55,0,0,1-.29-.11.08.08,0,0,0-.11,0L6,34.13a.08.08,0,0,0,0,.09,1,1,0,0,0,.53.18.94.94,0,0,0,.86-.62l1.37-3.36a.13.13,0,0,0,0-.06A.06.06,0,0,0,8.72,30.33Z"/><path d="M13.58,30.33a.07.07,0,0,0-.07.07v1.33a1,1,0,0,1-.95,1.08c-.45,0-.54-.27-.54-.75V30.4a.07.07,0,0,0-.06-.07h-.38a.07.07,0,0,0-.07.07v1.76c0,.78.32,1.14,1,1.14a1.22,1.22,0,0,0,1-.51v.38a.07.07,0,0,0,.07.07H14a.07.07,0,0,0,.06-.07V30.4a.07.07,0,0,0-.06-.07Z"/><path d="M19.18,30.33a.08.08,0,0,0-.07.07v.18a1.11,1.11,0,0,0-.85-.32A1.3,1.3,0,0,0,17,31.73a1.35,1.35,0,0,0,1.31,1.49,1,1,0,0,0,.8-.33v.23c0,.7-.56.8-.9.8a1.67,1.67,0,0,1-.71-.18h-.06a.08.08,0,0,0,0,0l-.14.31a.07.07,0,0,0,0,.09,2.07,2.07,0,0,0,.94.23,1.26,1.26,0,0,0,1.4-1.3V30.4a.07.07,0,0,0-.07-.07Zm-.07,1.4c0,.84-.41,1-.75,1-.51,0-.84-.4-.84-1s.28-1,.78-1S19.11,31.07,19.11,31.73Z"/><path d="M23.8,30.26a1.65,1.65,0,0,0-1,.33.06.06,0,0,0,0,.09l.17.29A.05.05,0,0,0,23,31H23a1.28,1.28,0,0,1,.74-.25c.42,0,.62.21.62.65h-.08c-.44,0-1.77,0-1.77,1a.92.92,0,0,0,1,.88,1,1,0,0,0,.86-.42v.29a.07.07,0,0,0,.07.07h.36a.07.07,0,0,0,.06-.07V31.4A1,1,0,0,0,23.8,30.26Zm.5,1.57h.09v.06a.9.9,0,0,1-.78,1,.49.49,0,0,1-.55-.46C23.06,31.9,23.73,31.83,24.3,31.83Z"/><path d="M29.56,30.26a1.27,1.27,0,0,0-1,.51V30.4a.07.07,0,0,0-.07-.07h-.37a.07.07,0,0,0-.06.07v2.77a.07.07,0,0,0,.06.07h.38a.07.07,0,0,0,.07-.07V31.84a1.2,1.2,0,0,1,0-.35,1,1,0,0,1,.94-.74c.45,0,.53.28.53.76v1.66a.07.07,0,0,0,.07.07h.38a.07.07,0,0,0,.07-.07V31.41C30.56,30.63,30.24,30.26,29.56,30.26Z"/><path d="M34.7,30.26a1.69,1.69,0,0,0-1,.33.06.06,0,0,0,0,.09l.17.29a.05.05,0,0,0,.05,0h.06a1.2,1.2,0,0,1,.73-.25c.42,0,.62.21.62.65h-.08c-.44,0-1.77,0-1.77,1a.92.92,0,0,0,1,.88,1,1,0,0,0,.86-.42v.29a.07.07,0,0,0,.07.07h.36a.07.07,0,0,0,.07-.07V31.4A1,1,0,0,0,34.7,30.26Zm.5,1.57h.09v.06a.9.9,0,0,1-.78,1,.48.48,0,0,1-.54-.46C34,31.9,34.63,31.83,35.2,31.83Z"/><path d="M40.2,32.78h-.11c-.21,0-.55-.09-.55-.67V30.81h.62a.07.07,0,0,0,.07-.06v-.32a.07.07,0,0,0-.07-.07h-.62v-.73a.08.08,0,0,0-.07-.07H39.1a.07.07,0,0,0-.07.07v.73h-.3a.07.07,0,0,0-.07.07v.32a.07.07,0,0,0,.07.06H39v1.35a1,1,0,0,0,1,1.1h.17a.08.08,0,0,0,.05-.07v-.34a.08.08,0,0,0,0-.05A.07.07,0,0,0,40.2,32.78Z"/><path d="M44.13,31.56c-.32-.13-.59-.23-.59-.46s.37-.36.48-.36a.92.92,0,0,1,.64.23.07.07,0,0,0,.06,0,.05.05,0,0,0,.05,0l.18-.29a.08.08,0,0,0,0-.08,1.24,1.24,0,0,0-.91-.33.9.9,0,0,0-1,.84c0,.54.49.74.9.9s.59.23.59.46-.26.37-.49.37a1.19,1.19,0,0,1-.78-.31s0,0-.05,0,0,0,0,0l-.2.27a.07.07,0,0,0,0,.09A1.45,1.45,0,0,0,44,33.3a.91.91,0,0,0,1-.84C45,31.91,44.53,31.71,44.13,31.56Z"/><path d="M50,30.33a.07.07,0,0,0-.07.07v1.33a1,1,0,0,1-1,1.08c-.45,0-.53-.27-.53-.75V30.4a.07.07,0,0,0-.07-.07H48a.07.07,0,0,0-.07.07v1.76c0,.78.32,1.14,1,1.14a1.25,1.25,0,0,0,1-.51v.38a.07.07,0,0,0,.06.07h.37a.07.07,0,0,0,.07-.07V30.4a.07.07,0,0,0-.07-.07Z"/><path d="M60.61,32.3s0,0,0,0a1.83,1.83,0,0,1-1.21.49,1.52,1.52,0,0,1-1.5-1.61,1.47,1.47,0,0,1,1.49-1.55,1.77,1.77,0,0,1,1.13.41s0,0,.06,0,0,0,0,0l.21-.28a.06.06,0,0,0,0-.09,2,2,0,0,0-1.44-.52,2,2,0,0,0-2,2.05,2,2,0,0,0,2,2.09,2.1,2.1,0,0,0,1.54-.62.07.07,0,0,0,0-.09l-.22-.27Z"/><rect x="63.3" y="29.23" width="0.53" height="0.61" rx="0.07"/><rect x="63.31" y="30.33" width="0.51" height="2.91" rx="0.07"/><path d="M67.7,32.78h-.11c-.21,0-.55-.09-.55-.67V30.81h.62a.07.07,0,0,0,.07-.06v-.32a.07.07,0,0,0-.07-.07H67v-.73a.07.07,0,0,0-.07-.07H66.6a.07.07,0,0,0-.07.07v.73h-.3a.07.07,0,0,0-.07.07v.32a.07.07,0,0,0,.07.06h.29v1.35a1,1,0,0,0,1,1.1h.17a.08.08,0,0,0,0-.07v-.34s0,0,0-.05A.07.07,0,0,0,67.7,32.78Z"/><path d="M71.41,30.3a1,1,0,0,0-.81.49V30.4a.07.07,0,0,0-.07-.07h-.36a.07.07,0,0,0-.07.07v2.77a.07.07,0,0,0,.07.07h.37a.07.07,0,0,0,.07-.07V32a1.77,1.77,0,0,1,.07-.52.83.83,0,0,1,.74-.67h.13s0,0,0,0a.05.05,0,0,0,0,0v-.37a.08.08,0,0,0,0-.07A.92.92,0,0,0,71.41,30.3Z"/><path d="M75.92,30.33a.07.07,0,0,0-.07.07v1.33a1,1,0,0,1-.95,1.08c-.45,0-.54-.27-.54-.75V30.4a.07.07,0,0,0-.07-.07h-.37a.07.07,0,0,0-.07.07v1.76c0,.78.32,1.14,1,1.14a1.22,1.22,0,0,0,1-.51v.38a.07.07,0,0,0,.07.07h.37a.07.07,0,0,0,.06-.07V30.4a.07.07,0,0,0-.06-.07Z"/><path d="M80,31.56c-.32-.13-.6-.23-.6-.46s.37-.36.49-.36a.92.92,0,0,1,.64.23s0,0,.06,0a.05.05,0,0,0,0,0l.17-.29a.06.06,0,0,0,0-.08,1.21,1.21,0,0,0-.9-.33.9.9,0,0,0-1,.84c0,.54.5.74.9.9s.59.23.59.46-.26.37-.48.37a1.16,1.16,0,0,1-.78-.31s0,0,0,0,0,0-.06,0l-.2.27a.07.07,0,0,0,0,.09,1.51,1.51,0,0,0,1.08.42.91.91,0,0,0,1-.84C80.85,31.91,80.35,31.71,80,31.56Z"/><path d="M1.3,5.91,3.4.32,4.64,0,7.16,6.78l.9.21L8,7.47H4.79L4.88,7l.7-.18L5,5.21H2.39L1.83,6.78,2.58,7l-.1.48H0L.1,7A1.31,1.31,0,0,0,1.3,5.91ZM3.75,1.57h0L2.57,4.67H4.81Z"/><path d="M38.85,6.27V.89l-1-.2L38,.21h3.17l-.1.5c-.57.1-.7.27-.7.69V6.78l1,.21-.1.48H38L38.1,7C38.72,6.86,38.85,6.7,38.85,6.27ZM42.46.69l.09-.48h2.73l-.09.53a1.69,1.69,0,0,0-1.5.72L42.11,3.35,44,6.06a2.45,2.45,0,0,0,1.75.87l-.1.4a2.53,2.53,0,0,1-1,.22,2.41,2.41,0,0,1-2.12-1.1L40.85,4,43.33.89Z"/><path d="M78.39,6.27V.89l-1-.2L77.5.21h3.17l-.09.5c-.57.1-.71.27-.71.69V6.78l1,.21-.1.48H77.53L77.64,7C78.26,6.86,78.39,6.69,78.39,6.27Z"/><path d="M3.07,16.05l-.71.21,2,3.18,1.79-3.15L5.35,16l.09-.47H7.65l-.1.52a1.12,1.12,0,0,0-.84.36L4.69,20v2.17l1,.22-.08.48H2.18l.11-.52c.76-.11.91-.22.91-.74v-1.3l-2.5-4L0,16l.1-.46H3.17Z"/><path d="M19,19.79a3.85,3.85,0,0,1,3.48-4.34,3.3,3.3,0,0,1,3.8,3.22A3.76,3.76,0,0,1,22.89,23,3.32,3.32,0,0,1,19,19.79Zm4,2.56c1.15-.1,1.77-1.21,1.59-3.28-.17-1.9-1.16-3.12-2.41-3s-1.77,1.27-1.59,3.34C20.82,21.3,21.81,22.46,23.06,22.35Z"/><path d="M39.7,20.6l.13,1a2.69,2.69,0,0,0,2.32.75,1.23,1.23,0,0,0,.79-.63,1,1,0,0,0-.09-1,1.65,1.65,0,0,0-.58-.39A12.75,12.75,0,0,1,40,19.06a1.76,1.76,0,0,1-.76-1.42,2.42,2.42,0,0,1,2.59-2.19,4.27,4.27,0,0,1,2.11.59l-.37,1.31h-.44L43,16.57a2.05,2.05,0,0,0-2.18-.3.93.93,0,0,0-.42,1.06,1.18,1.18,0,0,0,.67.61l1.06.5c1.61.83,2,1.46,2,2.32A2.32,2.32,0,0,1,41.56,23a5.45,5.45,0,0,1-2.75-.91l.42-1.45Z"/><path d="M57.07,21.62V16.25l-1-.21.1-.48h3.16l-.09.51c-.57.1-.71.26-.71.69v2H62V16.26l-1-.21.08-.49h3.18l-.09.51c-.58.1-.71.26-.71.69v5.38l1,.2-.11.48H61.2l.11-.51c.61-.09.73-.26.73-.69V19.28H58.55v2.86l1,.2-.1.48H56.21l.11-.51C56.94,22.21,57.07,22.05,57.07,21.62Z"/><path d="M78.39,21.62V16.25l-1-.21.09-.48h3.17l-.09.51c-.57.1-.71.26-.71.69v5.37l1,.21-.1.48H77.53l.11-.51C78.26,22.21,78.39,22.05,78.39,21.62Z"/></g></g></svg>